<svg xmlns="http://www.w3.org/2000/svg" viewBox="0 0 500 500"><ellipse cx="250" cy="334.33" rx="243.61" ry="145.8" style="fill:#f5f5f5"/><ellipse cx="424.74" cy="400.62" rx="64.6" ry="37.3" style="fill:#e0e0e0"/><path d="M18.66 385.83s4.29 2.47 13.24 0L101.39 426c4.28 2.47 23.17 5.73 23.17 5.73l36.4 21 6.8 2.33.81-.42-4.3-3.82-36.4-21s-9.93-9.55-13.24-11.46l-69.49-40.18s4-5.31 0-7.64c-5.06-1.91-30.14 12.06-26.48 15.29ZM54.24 351.3l-40.1-23.23a1 1 0 0 1 0-1.91l96.07-55.47a3.71 3.71 0 0 1 3.31 0l40.16 23.19a1 1 0 0 1 0 1.91L57.55 351.3a3.64 3.64 0 0 1-3.31 0ZM328.39 461l-32.64-18.84a1.34 1.34 0 0 1 0-2.54l32.64-18.84a4.83 4.83 0 0 1 4.38 0l32.64 18.84a1.34 1.34 0 0 1 0 2.54L332.77 461a4.83 4.83 0 0 1-4.38 0ZM159.76 93.8a19.68 19.68 0 0 1-3.26 0 20.06 20.06 0 0 1-3.21-.5 1 1 0 0 1-.78-1.09l.19-2.72a15.89 15.89 0 0 1-3.95-2l-2.05 1.77a1 1 0 0 1-1.35 0 19.89 19.89 0 0 1-4.24-4.9 1 1 0 0 1 .22-1.33l2.06-1.78a16 16 0 0 1-1.39-4.2l-2.71-.2a1 1 0 0 1-1-.93 19.27 19.27 0 0 1 .47-6.48 1 1 0 0 1 1.09-.78l2.71.2a16.28 16.28 0 0 1 2-4l-1.78-2.06a1.06 1.06 0 0 1 0-1.35 19.71 19.71 0 0 1 4.92-4.23 1 1 0 0 1 1.32.22l1.78 2a15.57 15.57 0 0 1 4.2-1.38l.2-2.72a1 1 0 0 1 .93-1 19.57 19.57 0 0 1 3.25 0 20 20 0 0 1 3.22.5 1 1 0 0 1 .78 1.09l-.2 2.72a16.13 16.13 0 0 1 4 2l2-1.77a1.06 1.06 0 0 1 1.35 0 19.76 19.76 0 0 1 4.24 4.91 1 1 0 0 1-.22 1.32L172.48 67a16.19 16.19 0 0 1 1.39 4.2l2.71.2a1 1 0 0 1 1 .94 19.54 19.54 0 0 1 0 3.25 20.79 20.79 0 0 1-.5 3.21 1 1 0 0 1-1.09.79l-2.71-.2a16.28 16.28 0 0 1-2 4l1.77 2.06a1 1 0 0 1 0 1.34 19.53 19.53 0 0 1-4.89 4.21 1 1 0 0 1-1.32-.21l-1.78-2.06a16.05 16.05 0 0 1-4.2 1.38l-.2 2.72a1 1 0 0 1-.9.97Zm-11.13-7.37a.45.45 0 0 1 .35.09 15.11 15.11 0 0 0 4.36 2.18.51.51 0 0 1 .35.51l-.23 3.1a14.82 14.82 0 0 0 3.09.54 19.89 19.89 0 0 0 3.09 0l.27-3.15a.48.48 0 0 1 .41-.45 15.17 15.17 0 0 0 4.68-1.56.48.48 0 0 1 .6.12l2 2.34a17.27 17.27 0 0 0 4.73-4l-2-2.42a.48.48 0 0 1 0-.61 15.21 15.21 0 0 0 2.19-4.35.51.51 0 0 1 .51-.35l3.09.23a.06.06 0 0 0 .06 0 18.87 18.87 0 0 0 .47-3.06 18.6 18.6 0 0 0 0-3.08l-3.15-.28a.49.49 0 0 1-.45-.41 15.16 15.16 0 0 0-1.53-4.64.48.48 0 0 1 .12-.6l2.35-2a17.63 17.63 0 0 0-4-4.73l-2.42 2a.5.5 0 0 1-.61 0 14.89 14.89 0 0 0-4.36-2.19.51.51 0 0 1-.35-.51l.23-3.1a14.18 14.18 0 0 0-3.09-.53 18.73 18.73 0 0 0-3.09 0l-.27 3.16a.5.5 0 0 1-.41.45 15 15 0 0 0-4.64 1.52.49.49 0 0 1-.6-.11l-2-2.35a17.46 17.46 0 0 0-4.74 4l2 2.41a.5.5 0 0 1 0 .61 15.22 15.22 0 0 0-2.2 4.37.5.5 0 0 1-.51.34l-3.09-.23a14.63 14.63 0 0 0-.54 3.09 17.83 17.83 0 0 0 0 3.1l3.14.27a.5.5 0 0 1 .46.41 14.84 14.84 0 0 0 1.53 4.63.49.49 0 0 1-.11.6l-2.36 2a17.63 17.63 0 0 0 4 4.73l2.42-2a.5.5 0 0 1 .25-.09Zm10.63-2.85a9.53 9.53 0 0 1-9.9-13.6 9 9 0 0 1 5.64-4.89 9.56 9.56 0 0 1 11.46 13.28 9 9 0 0 1-5.66 4.88 10.84 10.84 0 0 1-1.54.33Zm-2.56-17.83a8.83 8.83 0 0 0-1.41.29 8 8 0 0 0-5 4.34 8.58 8.58 0 0 0 10.29 11.93 8 8 0 0 0 5-4.35 8.66 8.66 0 0 0-1.22-9.35 8.55 8.55 0 0 0-7.66-2.86ZM460.58 84.41a19.57 19.57 0 0 1-3.25 0 20 20 0 0 1-3.22-.5 1 1 0 0 1-.78-1.09l.2-2.72a15.79 15.79 0 0 1-4-2l-2.05 1.77a1 1 0 0 1-1.35 0A19.89 19.89 0 0 1 441.9 75a1 1 0 0 1 .22-1.33l2.06-1.78a16.32 16.32 0 0 1-1.39-4.2l-2.71-.2a1 1 0 0 1-1-.93 19.27 19.27 0 0 1 .47-6.48 1 1 0 0 1 1.09-.78l2.71.2a16.28 16.28 0 0 1 2-3.95l-1.78-2.06a1 1 0 0 1 0-1.35A19.49 19.49 0 0 1 448.5 48a1 1 0 0 1 1.32.22l1.78 2a15.57 15.57 0 0 1 4.2-1.38l.2-2.72a1 1 0 0 1 .93-1 19.68 19.68 0 0 1 3.26 0 19.88 19.88 0 0 1 3.21.5 1 1 0 0 1 .78 1.09l-.2 2.72a16 16 0 0 1 4 2l2.02-1.78a1.06 1.06 0 0 1 1.35 0 19.76 19.76 0 0 1 4.24 4.91 1 1 0 0 1-.22 1.32l-2.06 1.78a16.19 16.19 0 0 1 1.39 4.2l2.71.2a1 1 0 0 1 1 .94 19.54 19.54 0 0 1 0 3.25 20.79 20.79 0 0 1-.5 3.21 1 1 0 0 1-1.09.79l-2.71-.2a16.1 16.1 0 0 1-2 4l1.76 1.95a1 1 0 0 1 0 1.34 19.66 19.66 0 0 1-4.9 4.24 1.05 1.05 0 0 1-1.33-.21l-1.77-2.06a16.24 16.24 0 0 1-4.21 1.38l-.2 2.72a1 1 0 0 1-.88 1ZM449.45 77a.45.45 0 0 1 .35.09 15.11 15.11 0 0 0 4.36 2.18.51.51 0 0 1 .35.51l-.23 3.1a14.82 14.82 0 0 0 3.09.54 19.89 19.89 0 0 0 3.09 0l.27-3.15a.49.49 0 0 1 .41-.45 15.17 15.17 0 0 0 4.64-1.53.48.48 0 0 1 .6.12l2 2.34a17.2 17.2 0 0 0 4.72-4l-2-2.42a.48.48 0 0 1 0-.61 15.21 15.21 0 0 0 2.19-4.35.51.51 0 0 1 .51-.35l3.09.23a.06.06 0 0 0 .06 0 20.07 20.07 0 0 0 .48-3.06 18.59 18.59 0 0 0 0-3.08l-3.14-.28a.49.49 0 0 1-.46-.41 15.16 15.16 0 0 0-1.53-4.64.49.49 0 0 1 .12-.6l2.35-2a17.63 17.63 0 0 0-4-4.73l-2.42 2a.5.5 0 0 1-.61 0 14.89 14.89 0 0 0-4.36-2.19.51.51 0 0 1-.35-.51l.23-3.1a14.18 14.18 0 0 0-3.09-.53 18.73 18.73 0 0 0-3.09 0l-.27 3.16a.5.5 0 0 1-.41.45 15 15 0 0 0-4.64 1.52.49.49 0 0 1-.6-.11l-2-2.35a17.46 17.46 0 0 0-4.74 4l2 2.41a.5.5 0 0 1 0 .61 15.22 15.22 0 0 0-2.2 4.37.5.5 0 0 1-.51.34l-3.09-.23a14.63 14.63 0 0 0-.54 3.09 17.83 17.83 0 0 0 0 3.1l3.15.27a.5.5 0 0 1 .45.41 15.11 15.11 0 0 0 1.53 4.63.49.49 0 0 1-.11.6l-2.36 2a17.63 17.63 0 0 0 4 4.73l2.42-2a.54.54 0 0 1 .29-.12Zm10.63-2.85a9.53 9.53 0 0 1-9.9-13.6 9 9 0 0 1 5.66-4.89A9.56 9.56 0 0 1 467.3 69a9 9 0 0 1-5.66 4.88 10.84 10.84 0 0 1-1.56.31Zm-2.55-17.83a9 9 0 0 0-1.42.29 8 8 0 0 0-5 4.34 8.58 8.58 0 0 0 10.29 11.93 8 8 0 0 0 5-4.35 8.66 8.66 0 0 0-1.22-9.35 8.55 8.55 0 0 0-7.65-2.82ZM196.23 45.27a7.36 7.36 0 0 0-4.61 4 7.74 7.74 0 0 0 7 11.11 9.24 9.24 0 0 0 1-.07 7.83 7.83 0 0 0 1.26-.26 7.3 7.3 0 0 0 4.6-4 7.76 7.76 0 0 0-9.3-10.79Zm8.44 10.39a6.38 6.38 0 0 1-4 3.45 6.81 6.81 0 0 1-8.18-9.47 6.47 6.47 0 0 1 5.12-3.64 7.11 7.11 0 0 1 .92-.06 6.84 6.84 0 0 1 5.17 2.33 6.91 6.91 0 0 1 .97 7.39Zm9.76-4.47a.9.9 0 0 0-.84-.82l-2.12-.16a12.91 12.91 0 0 0-1.09-3.28l1.62-1.39a.93.93 0 0 0 .18-1.17 15.83 15.83 0 0 0-3.42-4 .94.94 0 0 0-1.19 0L206 41.81a13 13 0 0 0-3.09-1.55l.16-2.12a.92.92 0 0 0-.7-1 15.71 15.71 0 0 0-2.59-.4 15.38 15.38 0 0 0-2.63 0 .9.9 0 0 0-.83.84l-.15 2.13a12.63 12.63 0 0 0-3.28 1.08l-1.39-1.61a.92.92 0 0 0-1.17-.19 16 16 0 0 0-4 3.42.92.92 0 0 0 0 1.19l1.39 1.6a13.39 13.39 0 0 0-1.56 3.09l-2.11-.15a.91.91 0 0 0-1 .69 15.18 15.18 0 0 0-.41 2.59 15.53 15.53 0 0 0 0 2.64.92.92 0 0 0 .85.82l2.12.16a12.71 12.71 0 0 0 1.09 3.27l-1.62 1.39a.93.93 0 0 0-.18 1.17 16.06 16.06 0 0 0 3.42 4 .92.92 0 0 0 1.19 0l1.6-1.38a13.76 13.76 0 0 0 3.09 1.55l-.16 2.12a.92.92 0 0 0 .7 1 15.71 15.71 0 0 0 2.59.4h1.2c.4 0 1 0 1.44-.07a.92.92 0 0 0 .79-.85l.16-2.12a12.89 12.89 0 0 0 3.28-1.08l1.39 1.61a.92.92 0 0 0 1.17.19 16 16 0 0 0 4-3.43.92.92 0 0 0 0-1.19L209.42 60a13.28 13.28 0 0 0 1.58-3l2.12.15a.9.9 0 0 0 1-.69 16.7 16.7 0 0 0 .4-2.6 15.38 15.38 0 0 0-.09-2.67Zm-.93 2.56a14.35 14.35 0 0 1-.37 2.41l-2.46-.16a.48.48 0 0 0-.49.33 12 12 0 0 1-1.75 3.48.47.47 0 0 0 0 .59l1.57 1.87a13.63 13.63 0 0 1-3.67 3.12l-1.59-1.83a.46.46 0 0 0-.58-.11 12.2 12.2 0 0 1-3.7 1.22.46.46 0 0 0-.4.43l-.21 2.47a14.91 14.91 0 0 1-2.41 0 11.43 11.43 0 0 1-2.4-.41l.18-2.43a.46.46 0 0 0-.34-.48 12.24 12.24 0 0 1-3.48-1.75.52.52 0 0 0-.34-.09.47.47 0 0 0-.25.11l-1.81 1.6a13.88 13.88 0 0 1-3.12-3.68l1.84-1.59a.47.47 0 0 0 .11-.58 12 12 0 0 1-1.23-3.7.46.46 0 0 0-.43-.39l-2.5-.18a14.92 14.92 0 0 1 0-2.41 11.9 11.9 0 0 1 .41-2.4l2.42.18a.46.46 0 0 0 .5-.37 12.46 12.46 0 0 1 1.76-3.49.47.47 0 0 0 0-.59L187.11 43a14.2 14.2 0 0 1 3.68-3.12l1.59 1.84a.47.47 0 0 0 .58.11 11.93 11.93 0 0 1 3.7-1.22.47.47 0 0 0 .4-.43l.21-2.47a14.9 14.9 0 0 1 2.41 0 11.45 11.45 0 0 1 2.4.4l-.18 2.43a.47.47 0 0 0 .34.49 12.24 12.24 0 0 1 3.48 1.75.48.48 0 0 0 .59 0l1.89-1.59a14 14 0 0 1 3.12 3.67l-1.84 1.59a.47.47 0 0 0-.11.58 12 12 0 0 1 1.22 3.7.48.48 0 0 0 .44.4l2.46.22a14.77 14.77 0 0 1 .01 2.4ZM418.6 44.76a7.35 7.35 0 0 0-4.61 4 7.84 7.84 0 0 0 1.12 8.45 7.74 7.74 0 0 0 5.89 2.63 8.89 8.89 0 0 0 1-.06 11 11 0 0 0 1.27-.26 7.32 7.32 0 0 0 4.6-4 7.76 7.76 0 0 0-9.3-10.78Zm8.4 10.39a6.38 6.38 0 0 1-4 3.45 6.81 6.81 0 0 1-8.18-9.47 6.36 6.36 0 0 1 4-3.45 7.46 7.46 0 0 1 1.12-.24 7.09 7.09 0 0 1 .92 0 6.8 6.8 0 0 1 5.17 2.33 6.91 6.91 0 0 1 .97 7.38Zm9.76-4.47a.91.91 0 0 0-.84-.83l-2.12-.15a13.17 13.17 0 0 0-1.09-3.28l1.66-1.42a.93.93 0 0 0 .18-1.17 15.83 15.83 0 0 0-3.42-4 .94.94 0 0 0-1.19 0l-1.6 1.39a12.61 12.61 0 0 0-3.09-1.55l.16-2.12a.91.91 0 0 0-.7-1 15.72 15.72 0 0 0-2.59-.41 16.46 16.46 0 0 0-2.63 0 .92.92 0 0 0-.83.85l-.15 2.12a13 13 0 0 0-3.28 1.08l-1.39-1.6a.92.92 0 0 0-1.17-.19 15.82 15.82 0 0 0-4 3.42.92.92 0 0 0 0 1.18l1.39 1.61a13.39 13.39 0 0 0-1.56 3.09l-2.11-.16a.92.92 0 0 0-1 .69 16.09 16.09 0 0 0-.39 5.24.92.92 0 0 0 .85.82l2.12.16a12.71 12.71 0 0 0 1.09 3.27l-1.62 1.39a.93.93 0 0 0-.18 1.17 16.06 16.06 0 0 0 3.42 4 .94.94 0 0 0 1.19 0l1.6-1.39a13 13 0 0 0 3.09 1.55l-.16 2.13a.9.9 0 0 0 .7 1 15.72 15.72 0 0 0 2.59.41h1.2c.4 0 1 0 1.44-.06a.9.9 0 0 0 .79-.84l.16-2.12a13.29 13.29 0 0 0 3.39-.96l1.39 1.6a.91.91 0 0 0 1.17.19 15.62 15.62 0 0 0 4-3.43.91.91 0 0 0 0-1.18l-1.39-1.6a13.35 13.35 0 0 0 1.55-3.09l2.12.16a.91.91 0 0 0 1-.7 16.51 16.51 0 0 0 .4-2.6 15.26 15.26 0 0 0-.11-2.67Zm-.93 2.55a14.46 14.46 0 0 1-.37 2.42l-2.46-.18a.48.48 0 0 0-.49.33 12 12 0 0 1-1.75 3.48.47.47 0 0 0 0 .59l1.58 1.89a14 14 0 0 1-3.67 3.12L427.15 63a.49.49 0 0 0-.58-.11 12.2 12.2 0 0 1-3.7 1.22.48.48 0 0 0-.4.44l-.21 2.47a14.91 14.91 0 0 1-2.41 0 12.12 12.12 0 0 1-2.4-.41l.18-2.43a.48.48 0 0 0-.34-.49 12 12 0 0 1-3.48-1.69.42.42 0 0 0-.34-.09.47.47 0 0 0-.25.11l-1.89 1.59a14 14 0 0 1-3.12-3.68l1.84-1.59a.48.48 0 0 0 .11-.58 12.13 12.13 0 0 1-1.23-3.7.47.47 0 0 0-.43-.4l-2.5-.21a14.92 14.92 0 0 1 0-2.45 11.9 11.9 0 0 1 .41-2.4l2.42.17a.47.47 0 0 0 .45-.34A12.53 12.53 0 0 1 411.1 45a.47.47 0 0 0 0-.59l-1.59-1.89a14.2 14.2 0 0 1 3.68-3.12l1.59 1.84a.49.49 0 0 0 .58.11 11.93 11.93 0 0 1 3.7-1.22.47.47 0 0 0 .4-.44l.21-2.46a14.89 14.89 0 0 1 2.41 0 12.12 12.12 0 0 1 2.4.41l-.18 2.43a.48.48 0 0 0 .34.49 11.74 11.74 0 0 1 3.48 1.75.47.47 0 0 0 .59 0l1.89-1.59a14.2 14.2 0 0 1 3.12 3.68l-1.84 1.59a.47.47 0 0 0-.11.58 11.93 11.93 0 0 1 1.22 3.7.49.49 0 0 0 .44.4l2.46.21a14.78 14.78 0 0 1-.02 2.35ZM46.63 167.65a6.38 6.38 0 0 0-4 3.48 6.85 6.85 0 0 0 1 7.39 6.85 6.85 0 0 0 6.06 2.28 7.06 7.06 0 0 0 1.11-.23 6.35 6.35 0 0 0 4-3.48 6.79 6.79 0 0 0-8.15-9.44Zm7.39 9.1a5.54 5.54 0 0 1-3.5 3 6 6 0 0 1-7.16-8.3 5.59 5.59 0 0 1 3.5-3 7.16 7.16 0 0 1 1-.21 7.31 7.31 0 0 1 .8-.05 5.95 5.95 0 0 1 5.34 8.56Zm8.56-3.92a.79.79 0 0 0-.74-.72L60 172a10.88 10.88 0 0 0-1-2.9l1.42-1.22a.81.81 0 0 0 .16-1 14.29 14.29 0 0 0-3-3.48.82.82 0 0 0-1 0l-1.41 1.21a11.6 11.6 0 0 0-2.7-1.36l.14-1.86a.8.8 0 0 0-.61-.83 14.08 14.08 0 0 0-2.28-.36 13.57 13.57 0 0 0-2.3 0 .79.79 0 0 0-.72.74l-.14 1.86a10.88 10.88 0 0 0-2.87 1l-1.22-1.41a.79.79 0 0 0-1-.16 13.63 13.63 0 0 0-3.48 3 .81.81 0 0 0 0 1l1.21 1.41a11.6 11.6 0 0 0-1.36 2.7l-1.84-.13a.78.78 0 0 0-.84.6 13.53 13.53 0 0 0-.36 2.28 13.72 13.72 0 0 0 0 2.31.81.81 0 0 0 .74.72l1.86.13a11.52 11.52 0 0 0 1 2.87l-1.41 1.22a.81.81 0 0 0-.17 1 13.89 13.89 0 0 0 3 3.47.8.8 0 0 0 1 0l1.41-1.22a11.59 11.59 0 0 0 2.7 1.36l-.13 1.86a.79.79 0 0 0 .6.84 13.21 13.21 0 0 0 2.28.35h1c.3 0 .84 0 1.26-.06a.8.8 0 0 0 .69-.74l.14-1.86a11.57 11.57 0 0 0 2.88-.94l1.21 1.4a.8.8 0 0 0 1 .17 13.71 13.71 0 0 0 3.48-3 .79.79 0 0 0 0-1l-1.21-1.41a11.22 11.22 0 0 0 1.36-2.7l1.85.14a.8.8 0 0 0 .84-.61 15 15 0 0 0 .36-2.28 13.56 13.56 0 0 0 .04-2.28Zm-.81 2.24a12.85 12.85 0 0 1-.33 2.11l-2.15-.18a.4.4 0 0 0-.43.29 10.5 10.5 0 0 1-1.54 3 .44.44 0 0 0 0 .52l1.4 1.66a12.16 12.16 0 0 1-3.23 2.73l-1.39-1.6a.4.4 0 0 0-.5-.1 11 11 0 0 1-3.25 1.07.42.42 0 0 0-.35.43l-.18 2.16a13.5 13.5 0 0 1-2.11 0 10.31 10.31 0 0 1-2.11-.36l.16-2.13a.41.41 0 0 0-.29-.42 10.78 10.78 0 0 1-3.05-1.53.42.42 0 0 0-.3-.08.37.37 0 0 0-.22.1l-1.66 1.39a12.5 12.5 0 0 1-2.73-3.22l1.61-1.4a.42.42 0 0 0 .1-.51 10.76 10.76 0 0 1-1.08-3.24.4.4 0 0 0-.38-.34l-2.15-.19a12.39 12.39 0 0 1 0-2.11A10.55 10.55 0 0 1 36 171l2.13.16a.41.41 0 0 0 .39-.29 10.87 10.87 0 0 1 1.54-3.06.41.41 0 0 0 0-.51l-1.4-1.66a12.35 12.35 0 0 1 3.21-2.64l1.39 1.61a.43.43 0 0 0 .51.1 10.13 10.13 0 0 1 3.23-1.12.41.41 0 0 0 .35-.38l.19-2.17a13.37 13.37 0 0 1 2.1 0 10.78 10.78 0 0 1 2.11.36l-.16 2.13a.43.43 0 0 0 .3.43 10.53 10.53 0 0 1 3.11 1.52.42.42 0 0 0 .51 0l1.66-1.4a12.62 12.62 0 0 1 2.74 3.23l-1.62 1.39a.41.41 0 0 0-.1.5 10.55 10.55 0 0 1 1.08 3.25.41.41 0 0 0 .38.35l2.16.19a13.37 13.37 0 0 1-.04 2.08ZM31.51 202.15a7.37 7.37 0 0 0-4.6 4 7.83 7.83 0 0 0 1.09 8.42 7.74 7.74 0 0 0 5.89 2.67 9.06 9.06 0 0 0 1-.07 8.18 8.18 0 0 0 1.27-.26 7.35 7.35 0 0 0 4.6-4 7.77 7.77 0 0 0-9.31-10.79ZM40 212.54a6.34 6.34 0 0 1-4 3.46 6.81 6.81 0 0 1-8.18-9.47 6.34 6.34 0 0 1 4-3.45 7.55 7.55 0 0 1 1.13-.23 7 7 0 0 1 .91-.06 6.78 6.78 0 0 1 6.14 9.75Zm9.77-4.47a.91.91 0 0 0-.85-.82l-2.11-.16a13.31 13.31 0 0 0-1.09-3.28l1.61-1.39a.92.92 0 0 0 .19-1.17 16.05 16.05 0 0 0-3.43-4 .91.91 0 0 0-1.18 0l-1.61 1.38a13.16 13.16 0 0 0-3.09-1.55l.16-2.12a.92.92 0 0 0-.69-1 15.83 15.83 0 0 0-2.6-.4 15.26 15.26 0 0 0-2.62 0 .89.89 0 0 0-.83.84l-.16 2.13a12.88 12.88 0 0 0-3.28 1.08L26.81 196a.92.92 0 0 0-1.17-.19 16.24 16.24 0 0 0-4 3.42.94.94 0 0 0 0 1.19l1.39 1.6a13.35 13.35 0 0 0-1.55 3.09l-2.12-.15a.91.91 0 0 0-1 .69 17.45 17.45 0 0 0-.41 2.59A16.64 16.64 0 0 0 18 211a.91.91 0 0 0 .85.82L21 212a13.52 13.52 0 0 0 1.09 3.27l-1.61 1.4a.92.92 0 0 0-.19 1.17 15.85 15.85 0 0 0 3.43 4 .91.91 0 0 0 1.18 0l1.61-1.38a13.28 13.28 0 0 0 3.08 1.55l-.15 2.12a.92.92 0 0 0 .69 1 15.83 15.83 0 0 0 2.6.4c.4 0 .8.05 1.2.05a13.88 13.88 0 0 0 1.44-.07.92.92 0 0 0 .79-.84l.16-2.13a13 13 0 0 0 3.28-1.08L41 223a.92.92 0 0 0 1.17.19 15.89 15.89 0 0 0 4-3.43.91.91 0 0 0 0-1.18l-1.38-1.61a13.28 13.28 0 0 0 1.55-3.08l2.12.15a.9.9 0 0 0 .95-.69 15.61 15.61 0 0 0 .41-2.6 15.38 15.38 0 0 0-.1-2.68Zm-.93 2.56a16.73 16.73 0 0 1-.37 2.41l-2.47-.18a.47.47 0 0 0-.49.33 12.24 12.24 0 0 1-1.75 3.48.48.48 0 0 0 0 .59l1.59 1.89a14.05 14.05 0 0 1-3.68 3.13l-1.58-1.84a.48.48 0 0 0-.58-.11 12.26 12.26 0 0 1-3.71 1.22.47.47 0 0 0-.4.43l-.21 2.47a14.78 14.78 0 0 1-2.4 0 11.64 11.64 0 0 1-2.41-.41l.18-2.43a.46.46 0 0 0-.33-.48 12.24 12.24 0 0 1-3.48-1.75.53.53 0 0 0-.34-.09.44.44 0 0 0-.25.11l-1.92 1.6a13.88 13.88 0 0 1-3.12-3.68l1.88-1.59a.49.49 0 0 0 .11-.58 12.07 12.07 0 0 1-1.23-3.69.46.46 0 0 0-.43-.4l-2.45-.22a16.16 16.16 0 0 1 0-2.41 11.89 11.89 0 0 1 .42-2.4l2.42.18a.47.47 0 0 0 .45-.33 12.17 12.17 0 0 1 1.71-3.49.48.48 0 0 0 0-.59l-1.6-1.89a14.25 14.25 0 0 1 3.69-3.12l1.58 1.84a.48.48 0 0 0 .58.11 12 12 0 0 1 3.7-1.22.48.48 0 0 0 .41-.43l.21-2.47a14.78 14.78 0 0 1 2.4 0 11.66 11.66 0 0 1 2.41.4l-.18 2.43a.46.46 0 0 0 .33.49 12 12 0 0 1 3.47 1.74.48.48 0 0 0 .59 0l1.9-1.59a13.88 13.88 0 0 1 3.12 3.68l-1.84 1.58a.47.47 0 0 0-.12.58 12.31 12.31 0 0 1 1.23 3.7.47.47 0 0 0 .43.4l2.47.22a14.77 14.77 0 0 1 .01 2.38Z" style="fill:#e0e0e0"/><path d="m97.28 287.05-4.38 2.52a1.74 1.74 0 0 1-1.6 0l-1.39-.8a1.36 1.36 0 0 1-.61-1.36l14.55-68.88a2.39 2.39 0 0 1 1-1.36l4.38-2.53a1.78 1.78 0 0 1 1.59 0l1.4.81a1.35 1.35 0 0 1 .6 1.36l-14.56 68.88a2.36 2.36 0 0 1-.98 1.36Z" style="fill:#455a64"/><path d="m97.28 287.05-4.38 2.52c-.44.26-.72.06-.61-.44l14.55-68.87a2.34 2.34 0 0 1 1-1.36l4.39-2.53c.43-.26.71-.06.6.44l-14.57 68.88a2.36 2.36 0 0 1-.98 1.36Z" style="fill:#263238"/><path d="m94.94 282.55 1.3-6.15 2.98-1.72 27.65 15.97 1.3 7.64-2.98 1.72-30.25-17.46z" style="fill:#37474f"/><path d="m125.19 300.01-30.25-17.46 1.3-6.15 27.65 15.97 1.3 7.64z" style="fill:#455a64"/><path d="m130.12 306-4.38 2.53a1.78 1.78 0 0 1-1.59 0l-1.4-.81a2.21 2.21 0 0 1-1-1.36l-14.62-86.11a1.43 1.43 0 0 1 .64-1.36l4.39-2.53a1.72 1.72 0 0 1 1.59 0l1.39.8a2.22 2.22 0 0 1 1 1.37l14.62 86.1a1.42 1.42 0 0 1-.64 1.37Z" style="fill:#37474f"/><path d="m107.18 220.26.55 3.26 14.07 82.84a2.28 2.28 0 0 0 1 1.37l1.4.81a1.78 1.78 0 0 0 1.59 0l4.38-2.53a1.44 1.44 0 0 0 .64-1.37l-14.57-85.81v-.29a2.23 2.23 0 0 0-1-1.37l-1.39-.81a1.8 1.8 0 0 0-1.6 0l-4.38 2.53a1.44 1.44 0 0 0-.69 1.37Z" style="fill:#37474f"/><path d="m116.14 218.54 14.62 86.1a1.42 1.42 0 0 1-.64 1.37l-4.38 2.53a.6.6 0 0 1-.95-.45L110.17 222a1.41 1.41 0 0 1 .64-1.37l4.38-2.53a.6.6 0 0 1 .95.44Z" style="fill:#455a64"/><path d="m103.15 221.88 2.29 1.33a3.47 3.47 0 0 0 2.29.31 2.68 2.68 0 0 0 .89-.31l7.57-4.38v-.29a2.23 2.23 0 0 0-1-1.37l-1.39-.81a1.8 1.8 0 0 0-1.6 0c.11-.49.44-.66 0-.91l-1.39-.81a1.78 1.78 0 0 0-1.59 0l-4.38 2.53a2.36 2.36 0 0 0-1 1.36Z" style="opacity:.15"/><path d="M100.49 216.52a1.08 1.08 0 0 1 .66-.93l8.76-5.06a3.5 3.5 0 0 1 3.18 0l4.29 2.47a1.13 1.13 0 0 1 .66.91v2a1.13 1.13 0 0 1-.66.92l-8.76 5a3.53 3.53 0 0 1-3.18 0l-4.29-2.48a1.11 1.11 0 0 1-.66-.91c-.01-.28 0-1.59 0-1.92Z" style="fill:#37474f"/><path d="M100.49 216.52a1.08 1.08 0 0 1 .66-.93l5.88-3.4v10.08a3.28 3.28 0 0 1-1.59-.38l-4.29-2.48a1.11 1.11 0 0 1-.66-.91c-.01-.34 0-1.65 0-1.98Z" style="fill:#263238"/><path d="m108.62 219.9 8.76-5.06a1 1 0 0 0 0-1.84l-4.29-2.47a3.5 3.5 0 0 0-3.18 0l-8.76 5.06a1 1 0 0 0 0 1.83l4.29 2.48a3.5 3.5 0 0 0 3.18 0ZM28.59 326.7l-4.38 2.53a1.78 1.78 0 0 1-1.59 0l-1.4-.8a1.35 1.35 0 0 1-.6-1.36l14.55-68.88a2.3 2.3 0 0 1 1-1.36l4.38-2.53a1.78 1.78 0 0 1 1.59 0l1.4.8a1.35 1.35 0 0 1 .6 1.36l-14.57 68.88a2.3 2.3 0 0 1-.98 1.36Z" style="fill:#455a64"/><path d="m28.59 326.7-4.38 2.53c-.44.25-.71.06-.61-.44l14.55-68.88a2.39 2.39 0 0 1 1-1.36l4.37-2.55c.44-.25.71 0 .6.44l-14.55 68.9a2.3 2.3 0 0 1-.98 1.36Z" style="fill:#263238"/><path d="m26.17 322.31 1.3-6.15 2.99-1.72 27.65 15.97 1.3 7.64-2.99 1.72-30.25-17.46z" style="fill:#37474f"/><path d="m56.42 339.77-30.25-17.46 1.3-6.15 27.65 15.97 1.3 7.64z" style="fill:#455a64"/><path d="m61.43 345.66-4.38 2.53a1.72 1.72 0 0 1-1.59 0l-1.39-.8a2.22 2.22 0 0 1-1-1.37l-14.57-86.1a1.42 1.42 0 0 1 .64-1.37l4.38-2.55a1.78 1.78 0 0 1 1.59 0l1.39.81a2.18 2.18 0 0 1 1 1.36l14.57 86.13a1.39 1.39 0 0 1-.64 1.36Z" style="fill:#37474f"/><path d="m38.5 259.92.55 3.25L53.12 346a2.22 2.22 0 0 0 .94 1.37l1.4.8a1.8 1.8 0 0 0 1.6 0l4.37-2.52a1.45 1.45 0 0 0 .65-1.37l-14.57-85.79v-.29a2.28 2.28 0 0 0-1-1.37l-1.4-.81a1.78 1.78 0 0 0-1.59 0l-4.39 2.53a1.43 1.43 0 0 0-.63 1.37Z" style="fill:#37474f"/><path d="m47.45 258.19 14.62 86.11a1.39 1.39 0 0 1-.64 1.36l-4.38 2.53a.59.59 0 0 1-.95-.44l-14.62-86.11a1.41 1.41 0 0 1 .64-1.36l4.38-2.53a.59.59 0 0 1 .95.44Z" style="fill:#455a64"/><path d="m34.46 261.54 2.29 1.32a3.44 3.44 0 0 0 2.3.31 2.85 2.85 0 0 0 .89-.31l7.57-4.37v-.29a2.28 2.28 0 0 0-1-1.37l-1.4-.81a1.78 1.78 0 0 0-1.59 0c.11-.49.44-.66 0-.92l-1.39-.8a1.74 1.74 0 0 0-1.6 0l-4.38 2.53a2.3 2.3 0 0 0-1 1.36Z" style="opacity:.15"/><path d="M31.8 256.17a1.14 1.14 0 0 1 .66-.93l8.76-5.06a3.56 3.56 0 0 1 3.18 0l4.29 2.48a1.11 1.11 0 0 1 .66.91v2a1.11 1.11 0 0 1-.66.92l-8.76 5.06a3.5 3.5 0 0 1-3.18 0l-4.29-2.48a1.13 1.13 0 0 1-.66-.9c0-.35.01-1.67 0-2Z" style="fill:#37474f"/><path d="M31.8 256.17a1.14 1.14 0 0 1 .66-.93l5.88-3.39v10.07a3.31 3.31 0 0 1-1.59-.38l-4.29-2.48a1.13 1.13 0 0 1-.66-.9c0-.34.01-1.66 0-1.99Z" style="fill:#263238"/><path d="m39.93 259.56 8.76-5.06a1 1 0 0 0 0-1.84l-4.29-2.48a3.56 3.56 0 0 0-3.18 0l-8.76 5.06a1 1 0 0 0 0 1.84l4.29 2.48a3.56 3.56 0 0 0 3.18 0Z" style="fill:#455a64"/><path d="m35.36 271.08 92.56-53.44-1.51-.87-92.56 53.44 1.51.87z" style="fill:#16a34a"/><path d="m35.36 271.08 92.56-53.44-1.51-.87-92.56 53.44 1.51.87z" style="fill:#fff;opacity:.4"/><path d="m35.36 271.08 4.49 26.73 92.56-53.44-4.49-26.73-92.56 53.44z" style="fill:#16a34a"/><path d="m33.85 270.21 4.49 26.73 1.51.87-4.49-26.73-1.51-.87z" style="fill:#e0e0e0"/><path d="m43.85 266.18-4 31.63-4.49-26.73 8.49-4.9zM123.92 249.27l4-31.63 4.49 26.73-8.49 4.9zM55.39 288.83l4-31.63-9.19 5.3-4 31.63 9.19-5.3zM70.93 279.86l4-31.63-9.19 5.3-4 31.63 9.19-5.3zM86.48 270.89l4-31.63-9.2 5.3-4 31.63 9.2-5.3zM102.02 261.92l4-31.64-9.19 5.31-4 31.63 9.19-5.3zM117.56 252.94l4-31.63-9.19 5.3-4 31.63 9.19-5.3z" style="fill:#ebebeb"/><path d="m50.2 262.5-1.51-.86 9.19-5.31 1.51.87-9.19 5.3zM65.74 253.53l-1.51-.87 9.2-5.3 1.5.87-9.19 5.3zM81.28 244.56l-1.5-.87 9.19-5.3 1.51.87-9.2 5.3zM96.83 235.59l-1.51-.87 9.2-5.31 1.5.87-9.19 5.31zM112.37 226.61l-1.51-.87 9.2-5.3 1.5.87-9.19 5.3zM35.36 271.08l-1.51-.87 8.49-4.9 1.51.87-8.49 4.9z" style="fill:#fafafa"/><path d="M83.91 359.52c0 3.56 2.67 8 6 9.88l139.29 80.45a13.13 13.13 0 0 0 11.9 0l217.35-125.48c3.28-1.9 5.95-6.33 5.95-9.89s-2.67-8-5.95-9.88l-139.33-80.45a13.16 13.16 0 0 0-11.91 0L89.87 349.63c-3.29 1.9-5.96 6.37-5.96 9.89Z" style="fill:#37474f"/><path d="M89.87 356.51 229.2 437a13.13 13.13 0 0 0 11.9 0l217.35-125.53c3.28-1.9 3.28-5 0-6.87l-139.33-80.45a13.16 13.16 0 0 0-11.91 0L89.87 349.63c-3.29 1.9-3.29 4.98 0 6.88Z" style="fill:#455a64"/><path d="M235.15 438.39v12.88a12.12 12.12 0 0 1-6-1.42L89.86 369.4c-3.28-1.89-6-6.32-6-9.88 0-3.34 2.35-7.44 5.35-9.5-2.67 1.91-2.46 4.72.6 6.49L229.2 437a12.12 12.12 0 0 0 5.95 1.39Z" style="fill:#263238"/><path d="M309.57 35.56c-2.79-2.22-7.57-2.2-10.86-.3L81.37 160.74a13.16 13.16 0 0 0-6 10.31v170.21c0 3.8 2.36 8 5.69 9.25 3.51 1.35 5.5 1 8.78-.91l217.37-125.45a13.14 13.14 0 0 0 6-10.31V43.63c-.05-3.8-.73-5.75-3.64-8.07Z" style="fill:#37474f"/><path d="M313.17 43.62c0-3.79-2.67-5.32-6-3.43L89.86 165.68a12.11 12.11 0 0 0-4.2 4.45l-8.5-4.94a12.24 12.24 0 0 1 4.22-4.45L298.71 35.26c3.28-1.9 8.08-1.94 10.85.3 2.93 2.36 3.61 4.27 3.61 8.06Z" style="fill:#455a64"/><path d="M83.94 346.18v-170.2a12.13 12.13 0 0 1 1.75-5.86l-8.5-4.92a12.08 12.08 0 0 0-1.77 5.8v170.28c0 3.8 2.37 8 5.69 9.25 3.51 1.35 5.51 1 8.79-.91-3.29 1.9-5.96.38-5.96-3.44Z" style="fill:#263238"/><path d="M93.07 172.54 302.23 51.81c2-1.13 3.57-.21 3.57 2.07v158.29a7.9 7.9 0 0 1-3.57 6.19L93.07 339.08c-2 1.14-3.57.22-3.57-2.06V178.73a7.9 7.9 0 0 1 3.57-6.19Z"/><path d="M93.07 172.54a7.9 7.9 0 0 0-3.57 6.19v155.53l206.77-119.34a7.9 7.9 0 0 0 3.57-6.19V53.19Z" style="fill:#fff"/><path d="M108.25 350.64 308 235.33a6.23 6.23 0 0 1 5.61 0l7.28 4.08c1.55.9 1.55 2.35 0 3.24L121.11 358a6.25 6.25 0 0 1-5.62 0l-7.24-4.06c-1.55-.94-1.55-2.4 0-3.3ZM127.86 362.21 327.59 246.9a5.71 5.71 0 0 1 5.13-.28l52 30c1.28.74 1.06 2.06-.49 3l-199.5 115.13a5.74 5.74 0 0 1-5.14.29l-52.2-29.87c-1.29-.74-1.08-2.06.47-2.96Z" style="fill:#263238"/><path d="m300.93 295.33 6.26-3.61c.26-.15.29-.39.05-.52l-6-3.46a1 1 0 0 0-.91 0l-6.25 3.62c-.27.15-.29.38-.06.52l6 3.45a1 1 0 0 0 .91 0Zm-9.13-12.49-6.25 3.61c-.27.15-.29.39-.05.53l6 3.45a1 1 0 0 0 .91 0l6.25-3.61c.27-.16.29-.39.05-.53l-6-3.45a1 1 0 0 0-.91 0Zm-20.2 11.67-10.6 6.11c-.27.15-.29.38-.06.52l6 3.45a1 1 0 0 0 .91 0l10.59-6.11c.26-.15.29-.39.05-.52l-6-3.46a1 1 0 0 0-.89.01Zm11.06-6.39-6.25 3.61c-.27.15-.29.39-.05.52l6 3.46a1 1 0 0 0 .91 0l6.25-3.61c.27-.16.29-.39.05-.53l-6-3.45a1 1 0 0 0-.91 0Zm-24.53 14.16-6.25 3.61c-.27.16-.29.39-.06.53l6 3.45a1 1 0 0 0 .9 0l6.26-3.61c.26-.15.29-.39 0-.53l-6-3.45a1 1 0 0 0-.85 0Zm-9.13 5.28-6.25 3.61c-.27.15-.29.39-.06.52l6 3.46a1 1 0 0 0 .9 0l6.26-3.61c.26-.16.29-.39 0-.53l-6-3.45a1 1 0 0 0-.85 0Zm23.45 14.09 6.25-3.61c.27-.15.29-.39.06-.52l-6-3.46a1 1 0 0 0-.9 0l-6.26 3.62c-.26.15-.29.38-.05.52l6 3.45a1 1 0 0 0 .89 0Zm-9.14 5.28 6.25-3.61c.27-.15.29-.39.06-.53l-6-3.45a1 1 0 0 0-.9 0l-6.26 3.66c-.26.16-.29.39 0 .53l6 3.45a1 1 0 0 0 .84-.05Zm-9.14 5.28 6.25-3.61c.27-.16.29-.39.06-.53l-6-3.45a1 1 0 0 0-.9 0l-6.26 3.61c-.26.15-.29.39 0 .52l6 3.46a1 1 0 0 0 .84 0Zm-9.17 5.27 6.25-3.61c.27-.15.29-.39.06-.52l-6-3.46a1 1 0 0 0-.9 0l-6.26 3.61c-.26.15-.29.38-.05.52l6 3.45a1 1 0 0 0 .9.01Zm46.77-36.87 6.26-3.61c.26-.15.29-.39.05-.52l-6-3.46a1 1 0 0 0-.91 0l-6.17 3.64c-.27.16-.29.39-.06.53l6 3.45a1 1 0 0 0 .85-.03Zm-10.21 15.77 13.95-8.06c.27-.15.29-.39.05-.52l-14.53-8.39a1 1 0 0 0-.9 0l-7.22 4.17c-.27.15-.29.38-.05.52l7.69 4.44c.23.14.21.37-.06.53l-5.77 3.33c-.26.15-.29.39-.05.52l6 3.46a1 1 0 0 0 .91 0Zm-41.73-3.54-6.25 3.61c-.27.15-.29.38-.06.52l6 3.45a1 1 0 0 0 .9 0l6.26-3.61c.26-.15.29-.39.05-.52l-6-3.46a1 1 0 0 0-.88.01Zm-9.14 5.27-6.25 3.61c-.27.16-.29.39-.06.53l6 3.45a1 1 0 0 0 .9 0l6.26-3.61c.26-.15.29-.39 0-.52l-6-3.46a1 1 0 0 0-.83 0Zm-50.58 56.34a1 1 0 0 0 .91 0l6.25-3.61c.27-.15.29-.39.06-.52l-6-3.46a1 1 0 0 0-.91 0l-6.26 3.61c-.26.16-.29.39 0 .53Zm-22.54-14.12-6.25 3.61c-.27.15-.29.39-.06.52l6 3.46a1 1 0 0 0 .91 0l6.25-3.62c.26-.15.29-.38 0-.52l-6-3.45a1 1 0 0 0-.83 0Zm11.59 10.58a1 1 0 0 0 .91 0l6.25-3.61c.27-.16.29-.39.06-.53l-6-3.45a1 1 0 0 0-.9 0l-6.26 3.61c-.26.15-.29.39-.05.52Zm25.22 5.67 6.25-3.61c.27-.16.29-.39.06-.53l-6-3.45a1 1 0 0 0-.91 0l-6.25 3.61c-.26.15-.29.39-.05.53l6 3.45a1 1 0 0 0 .92 0Zm-10.05 5.31a1 1 0 0 0 .91 0l6.25-3.61c.27-.16.29-.39.06-.53l-6-3.45a1 1 0 0 0-.91 0l-6.25 3.61c-.26.15-.29.39 0 .52Zm-17.62-26.84-6.25 3.61c-.27.15-.29.39-.06.53l6 3.45a1 1 0 0 0 .9 0l6.26-3.61c.26-.16.29-.39.05-.53l-6-3.45a1 1 0 0 0-.88 0Zm45.7-26.38-6.25 3.61c-.27.15-.29.38-.06.52l6 3.46a1 1 0 0 0 .9 0l6.26-3.61c.26-.15.29-.38 0-.52l-6-3.45a1 1 0 0 0-.83-.01Zm-36.56 21.1-6.25 3.61c-.27.16-.29.39-.06.53l6 3.45a1 1 0 0 0 .9 0l6.26-3.61c.26-.15.29-.39 0-.52l-6-3.46a1 1 0 0 0-.83 0Zm45.7-26.38-6.23 3.61c-.27.15-.29.39-.06.52l6 3.46a1 1 0 0 0 .9 0l6.26-3.61c.26-.16.29-.39.05-.53l-6-3.45a1 1 0 0 0-.9 0Zm-18.28 10.55-6.27 3.61c-.27.16-.29.39-.06.53l6 3.45a1 1 0 0 0 .9 0l6.26-3.61c.26-.15.29-.39.05-.52l-6-3.46a1 1 0 0 0-.86 0Zm-9.14 5.28-6.25 3.61c-.27.15-.29.39-.06.52l6 3.46a1 1 0 0 0 .9 0l6.26-3.61c.26-.16.29-.39 0-.53l-6-3.45a1 1 0 0 0-.83 0ZM185 344.5l-6.25 3.61c-.27.15-.29.39-.06.52l6 3.46a1 1 0 0 0 .9 0l6.26-3.62c.26-.15.29-.38.05-.52l-6-3.45a1 1 0 0 0-.9 0Zm41.74 3.5 6.25-3.61c.27-.16.29-.39.06-.53l-6-3.45a1 1 0 0 0-.9 0l-6.26 3.61c-.26.15-.29.39-.05.52l6 3.46a1 1 0 0 0 .9 0ZM312 271.18l-6.26 3.61c-.26.15-.29.38-.05.52l6 3.45a1 1 0 0 0 .91 0l6.25-3.61c.27-.15.29-.38.06-.52l-6-3.46a1 1 0 0 0-.91.01Zm-11.07 6.38-6.25 3.61c-.27.16-.29.39-.05.53l6 3.45a1 1 0 0 0 .91 0l6.25-3.61c.27-.15.29-.39.05-.52l-6-3.46a1 1 0 0 0-.9 0Zm20.21-11.66-6.26 3.61c-.26.15-.29.39-.05.52l6 3.46a1 1 0 0 0 .91 0l6.25-3.61c.27-.16.29-.39.06-.53l-6-3.45a1 1 0 0 0-.9 0Zm-50.52 46.93 6.25-3.61c.27-.15.29-.39.05-.52l-6-3.46a1 1 0 0 0-.91 0l-6.25 3.61c-.27.16-.29.39-.05.53l6 3.45a1 1 0 0 0 .92 0Zm60.56-52.24a1 1 0 0 0-.9 0l-6.28 3.64c-.26.16-.29.39 0 .53l6 3.45a1 1 0 0 0 .91 0l6.25-3.61c.27-.15.29-.39.06-.52Zm-95.31 82.17 6.25-3.61c.27-.15.29-.39.06-.52l-6-3.46a1 1 0 0 0-.9 0l-6.28 3.64c-.26.16-.29.39 0 .53l6 3.45a1 1 0 0 0 .88-.03ZM348 278.05l6.26-3.61c.26-.15.29-.39 0-.53l-6-3.45a1 1 0 0 0-.91 0l-6.25 3.61c-.27.15-.29.39-.06.53l6 3.45a1 1 0 0 0 .96 0Zm-17.68.34 6.25-3.61c.27-.15.29-.39.05-.52l-6-3.46a1 1 0 0 0-.91 0l-6.25 3.61c-.27.16-.29.39-.05.53l6 3.45a1 1 0 0 0 .87 0Zm9.46-12.86a1 1 0 0 0-.91 0l-6.25 3.61c-.27.15-.29.39-.05.52l6 3.46a1 1 0 0 0 .91 0l6.25-3.61c.27-.15.29-.38.05-.52Zm1.93-1.12 14.52 8.39a1 1 0 0 0 .91 0l6.26-3.61c.26-.15.29-.39.05-.52l-14.53-8.39a1 1 0 0 0-.91 0l-6.25 3.61c-.31.11-.33.39-.09.52Zm-21.12 11.7-6.25 3.61c-.27.15-.29.39-.05.53l6 3.45a1 1 0 0 0 .91 0l6.25-3.61c.27-.16.29-.39.05-.53l-6-3.45a1 1 0 0 0-.95 0Zm-68.79 39.72-6.25 3.61c-.27.15-.29.38 0 .52l6 3.45a1 1 0 0 0 .91 0l6.25-3.61c.27-.15.29-.38 0-.52l-6-3.46a1 1 0 0 0-.95.01Zm86.16-32.47a1 1 0 0 0 .9 0l6.26-3.61c.26-.16.29-.39.05-.53l-6-3.45a1 1 0 0 0-.91 0l-6.26 3.61c-.27.15-.29.39-.06.52Zm-77 27.19-6.25 3.61c-.27.15-.29.39-.05.52l6 3.46a1 1 0 0 0 .91 0l6.25-3.61c.27-.16.29-.39.05-.53l-6-3.45a1 1 0 0 0-.97 0Zm-71.63 58.63a1 1 0 0 0 .91 0l6.25-3.61c.27-.15.29-.38.06-.52l-6-3.45a1 1 0 0 0-.91 0l-6.26 3.61c-.26.15-.29.39-.05.52ZM178.65 358l-6.26 3.61c-.26.15-.29.39 0 .53l6 3.45a1 1 0 0 0 .91 0l6.25-3.61c.27-.15.29-.39.06-.53l-6-3.45a1 1 0 0 0-.96 0Zm20.67 5.83 6.25-3.61c.27-.16.29-.39.06-.53l-6-3.45a1 1 0 0 0-.91 0l-6.26 3.61c-.26.15-.29.39 0 .52l6 3.46a1 1 0 0 0 .86.04Zm9.14-5.28 6.25-3.61c.27-.15.29-.39.06-.52l-6-3.46a1 1 0 0 0-.9 0l-6.26 3.61c-.26.16-.29.39-.05.53l6 3.45a1 1 0 0 0 .9.04Zm9.14-5.28 6.25-3.61c.27-.15.29-.38.06-.52l-6-3.45a1 1 0 0 0-.9 0l-6.26 3.61c-.26.15-.29.39 0 .52l6 3.46a1 1 0 0 0 .85.03Zm-29.82-.55-6.25 3.61c-.26.16-.29.39-.05.53l6 3.45a1 1 0 0 0 .91 0l6.25-3.61c.27-.15.29-.39.06-.52l-6-3.46a1 1 0 0 0-.92.04Zm9.14-5.27-6.25 3.61c-.26.15-.29.39 0 .52l6 3.46a1 1 0 0 0 .91 0l6.25-3.62c.27-.15.29-.38.06-.52l-6-3.45a1 1 0 0 0-.97.04Zm36.56-21.11-6.25 3.66c-.27.15-.29.39 0 .52l6 3.46a1 1 0 0 0 .91 0l6.25-3.61c.27-.16.29-.39.06-.53l-6-3.45a1 1 0 0 0-.97-.01Zm-9.14 5.28-6.25 3.61c-.26.15-.29.39-.05.52l6 3.46a1 1 0 0 0 .91 0l6.25-3.61c.27-.15.29-.38.06-.52l-6-3.45a1 1 0 0 0-.92.03Zm18.28-10.56-6.25 3.61c-.27.16-.29.39-.05.53l6 3.45a1 1 0 0 0 .91 0l6.25-3.61c.27-.15.29-.39 0-.52l-6-3.46a1 1 0 0 0-.86.04Zm-36.56 21.11-6.25 3.61c-.26.15-.29.39-.05.53l6 3.45a1 1 0 0 0 .91 0l6.25-3.61c.27-.16.29-.39.06-.53l-6-3.45a1 1 0 0 0-.92.04Zm9.14-5.28-6.2 3.65c-.26.16-.29.39 0 .53l6 3.45a1 1 0 0 0 .91 0l6.25-3.61c.27-.15.29-.39.06-.52l-6-3.46a1 1 0 0 0-1.02 0Zm-11.66 34.41 6.25-3.61c.27-.15.29-.39.06-.52l-6-3.46a1 1 0 0 0-.91 0l-6.25 3.61c-.27.16-.29.39 0 .53l6 3.45a1 1 0 0 0 .85 0Zm-48.2-2.3-6-3.46a1 1 0 0 0-.91 0l-6.25 3.62c-.27.15-.29.38-.06.52l6 3.45a1 1 0 0 0 .91 0l6.25-3.61c.27-.12.3-.36.06-.52Zm11.92 3-6-3.46a1 1 0 0 0-.9 0l-9.63 5.56c-.26.15-.29.39-.05.52l6 3.46a1 1 0 0 0 .91 0l9.62-5.56c.26-.13.28-.37.05-.52Zm-20.85-9.81-6-3.46a1 1 0 0 0-.91 0l-7.7 4.45c-.26.15-.29.38 0 .52l6 3.45a1 1 0 0 0 .91 0l7.7-4.44c.21-.13.24-.37 0-.5Zm5.9-3.41a1 1 0 0 0 .91 0l6.26-3.61c.26-.16.29-.39.05-.53l-6-3.45a1 1 0 0 0-.91 0l-6.26 3.61c-.26.15-.29.39 0 .52Zm25.9 16.76-6-3.45a1 1 0 0 0-.91 0l-12 6.94c-.26.16-.29.39 0 .53l6 3.45a1 1 0 0 0 .91 0l12-6.94c.21-.14.23-.37 0-.51Zm4.22 7.44-6-3.46a1 1 0 0 0-.91 0l-7.68 4.48c-.27.15-.29.39-.06.52l6 3.46a1 1 0 0 0 .91 0l7.69-4.45c.26-.16.28-.4.05-.53Zm37.84-63.44a1 1 0 0 0 .91 0l6.25-3.61c.27-.15.29-.39 0-.52l-6-3.46a1 1 0 0 0-.91 0l-6.25 3.61c-.27.15-.29.38-.05.52ZM202 330.12a1 1 0 0 0 .91 0l6.25-3.61c.27-.16.29-.39 0-.53l-6-3.45a1 1 0 0 0-.91 0l-6.25 3.61c-.27.15-.29.39-.05.52Zm-40.54 23.4a1 1 0 0 0 .91 0l6.25-3.61c.27-.15.29-.39.06-.52l-6-3.46a1 1 0 0 0-.91 0l-6.26 3.61c-.26.16-.29.39-.05.53Zm49.68-28.68a1 1 0 0 0 .91 0l6.25-3.61c.27-.15.29-.39.05-.52l-6-3.46a1 1 0 0 0-.91 0l-6.25 3.61c-.27.16-.29.39 0 .53Zm-18.29 10.56a1 1 0 0 0 .91 0l6.25-3.61c.27-.15.29-.38.05-.52l-6-3.46a1 1 0 0 0-.91 0l-6.25 3.61c-.27.15-.29.39 0 .52Zm-5.94 48a1 1 0 0 0-.9 0l-9.63 5.6c-.26.16-.28.39 0 .53l6 3.45a1 1 0 0 0 .91 0l9.62-5.55c.27-.16.29-.39.06-.53Zm-7.18-40.4a1 1 0 0 0 .91 0l6.25-3.61c.27-.16.29-.39.06-.53l-6-3.45a1 1 0 0 0-.91 0L173.8 339c-.26.15-.29.39-.05.52Zm-9.14 5.27a1 1 0 0 0 .91 0l6.25-3.61c.27-.15.29-.38.06-.52l-6-3.46a1 1 0 0 0-.91 0l-6.26 3.61c-.26.15-.29.38 0 .52Zm185.65-62.63a1 1 0 0 0-.91 0l-15.39 8.88c-.27.16-.29.39-.05.53l6 3.45a1 1 0 0 0 .91 0l15.39-8.89c.27-.15.29-.38.05-.52ZM336 297.27a1 1 0 0 0-.91 0l-6.25 3.61c-.27.16-.29.39-.06.53l6 3.45a1 1 0 0 0 .91 0l6.26-3.61c.26-.15.29-.39 0-.53ZM212.68 366l6.25-3.62c.27-.15.29-.38.06-.52l-6-3.45a1 1 0 0 0-.91 0l-6.25 3.61c-.27.15-.29.39-.05.52l6 3.46a1 1 0 0 0 .9 0Zm105.08-58.21a1 1 0 0 0-.91 0l-6.25 3.61c-.27.15-.29.38-.06.52l6 3.45a1 1 0 0 0 .91 0l6.26-3.61c.26-.15.29-.39.05-.52Zm47.62-27.49a1 1 0 0 0-.91 0l-6.25 3.7c-.27.15-.29.39-.05.52l6 3.46a1 1 0 0 0 .91 0l6.25-3.61c.27-.16.29-.39.05-.53Zm15.12-1.82-14.5-8.36a1 1 0 0 0-.9 0l-6.26 3.61c-.26.15-.29.39-.05.52l14.53 8.39a1 1 0 0 0 .91 0l6.25-3.61c.24-.15.26-.39.02-.52Zm-96.9 49a1 1 0 0 0-.9 0L275 332c-.27.15-.29.39-.05.52l6 3.46a1 1 0 0 0 .91 0l7.69-4.45c.27-.15.29-.39.06-.52Zm23.09-13.33a1 1 0 0 0-.9 0l-9.62 5.56c-.27.15-.29.39-.06.52l6 3.46a1 1 0 0 0 .91 0l9.62-5.56c.27-.15.29-.39.06-.52Zm-44.25 25.55a1 1 0 0 0-.91 0l-51.47 29.72c-.27.16-.29.39-.06.53l6 3.45a1 1 0 0 0 .91 0l51.47-29.72c.26-.15.29-.39.05-.52Zm-54.36 31.39a1 1 0 0 0-.91 0l-7.7 4.44c-.26.15-.29.39-.05.53l6 3.45a1 1 0 0 0 .91 0l7.7-4.44c.26-.16.29-.39.05-.53ZM273 333.65a1 1 0 0 0-.91 0l-7.69 4.45c-.27.15-.29.39-.06.52l6 3.46a1 1 0 0 0 .9 0l7.7-4.45c.27-.15.29-.39.05-.52Zm-75.5 43.61a1 1 0 0 0-.91 0l-7.7 4.44c-.26.16-.29.39 0 .53l6 3.45a1 1 0 0 0 .91 0l7.7-4.44c.26-.16.29-.39 0-.53Zm96.69-55.83a1 1 0 0 0-.91 0l-7.7 4.45c-.26.15-.29.39-.05.52l6 3.46a1 1 0 0 0 .91 0l7.7-4.45c.26-.15.29-.39.05-.52Zm32.71-18.88a1 1 0 0 0-.91 0l-6.25 3.61c-.27.15-.29.39-.06.52l6 3.46a1 1 0 0 0 .9 0l6.26-3.61c.26-.16.29-.39.05-.53Zm20.47-14.29 6.25-3.61c.27-.15.29-.39.06-.52l-6-3.46a1 1 0 0 0-.9 0l-6.26 3.61c-.26.16-.29.39 0 .53l6 3.45a1 1 0 0 0 .85 0Zm-37.3 1.8 6.26-3.61c.26-.16.29-.39.05-.53l-6-3.45a1 1 0 0 0-.91 0l-6.25 3.61c-.27.15-.29.39-.06.52l6 3.46a1 1 0 0 0 .91 0Zm-24.27 33.75 18.28-10.55c.26-.16.29-.39.05-.53l-6-3.45a1 1 0 0 0-.91 0L279 319.86c-.27.16-.29.39 0 .53l6 3.45a1 1 0 0 0 .8-.03Zm51.52-30.24a1 1 0 0 0 .91 0l6.25-3.61c.27-.16.29-.39.06-.53l-6-3.45a1 1 0 0 0-.9 0l-6.26 3.61c-.26.15-.29.39-.05.52Zm-7.64-5 6.26-3.61c.26-.15.29-.39.05-.52L330 281a1 1 0 0 0-.91 0l-6.25 3.62c-.27.15-.29.38-.06.52l6 3.45a1 1 0 0 0 .9.01Zm-53 40.49 6.25-3.61c.27-.16.29-.39 0-.53l-6-3.45a1 1 0 0 0-.91 0l-6.25 3.61c-.27.15-.29.39-.05.52l6 3.46a1 1 0 0 0 .94.03Zm40.46-23.86a1 1 0 0 0 .91 0l6.25-3.61c.27-.15.29-.39.05-.52l-6-3.46a1 1 0 0 0-.91 0l-6.25 3.61c-.27.16-.29.39-.05.53ZM231 355.47l6.25-3.61c.27-.15.29-.39.06-.52l-6-3.46a1 1 0 0 0-.91 0l-6.25 3.61c-.27.16-.29.39-.05.53l6 3.45a1 1 0 0 0 .9 0Zm9.14-5.28 6.25-3.61c.27-.15.29-.38.05-.52l-6-3.45a1 1 0 0 0-.91 0l-6.25 3.61c-.27.15-.29.39 0 .52l6 3.46a1 1 0 0 0 .82-.01Zm-18.28 10.56 6.25-3.61c.27-.16.29-.39.05-.53l-6-3.45a1 1 0 0 0-.91 0L215 356.8c-.27.15-.29.39 0 .53l6 3.45a1 1 0 0 0 .82-.03Zm36.56-21.11 6.25-3.61c.27-.15.29-.39.05-.52l-6-3.46a1 1 0 0 0-.91 0l-6.25 3.61c-.27.16-.29.39 0 .53l6 3.45a1 1 0 0 0 .82 0Zm-9.14 5.28 6.25-3.61c.27-.16.29-.39 0-.53l-6-3.45a1 1 0 0 0-.91 0L242.4 341c-.27.15-.29.39-.05.52l6 3.46a1 1 0 0 0 .89-.06Zm18.28-10.56 6.25-3.61c.27-.15.29-.39.05-.52l-6-3.46a1 1 0 0 0-.91 0l-6.25 3.61c-.27.15-.29.38-.05.52l6 3.46a1 1 0 0 0 .87 0ZM317.39 261a1 1 0 0 0 .91 0l6.26-3.61c.26-.15.28-.38.05-.52l-1.59-.92a1 1 0 0 0-.91 0l-6.26 3.61c-.26.15-.28.39-.05.53ZM272 289.72a1 1 0 0 0 .9 0l6.26-3.61c.26-.16.29-.39.05-.53l-6-3.45a1 1 0 0 0-.91 0l-6.3 3.61c-.27.15-.29.39-.06.52Zm18.28-10.56a1 1 0 0 0 .9 0l6.26-3.61c.26-.15.29-.39 0-.52l-6-3.46a1 1 0 0 0-.91 0l-6.25 3.62c-.27.15-.29.38-.06.52Zm-29.45 17a1 1 0 0 0 .91 0l6.26-3.61c.26-.15.29-.39 0-.53l-6-3.45a1 1 0 0 0-.91 0l-6.25 3.61c-.27.16-.29.39-.06.53Zm20.31-11.72a1 1 0 0 0 .9 0l6.26-3.61c.26-.15.29-.39.05-.53l-6-3.45a1 1 0 0 0-.91 0l-6.25 3.61c-.27.16-.29.39-.06.53Zm-38.59 22.28a1 1 0 0 0 .91 0l6.26-3.61c.26-.15.29-.38.05-.52l-6-3.46a1 1 0 0 0-.91 0l-6.25 3.61c-.27.15-.29.38-.06.52Zm9.14-5.28a1 1 0 0 0 .91 0l6.26-3.61c.26-.16.29-.39.05-.53l-6-3.45a1 1 0 0 0-.91 0l-6.25 3.61c-.27.15-.29.39-.06.52Zm47.45-29.93a1 1 0 0 0 .91 0l6.26-3.61c.26-.16.29-.39.05-.53l-1.59-.92a1 1 0 0 0-.91 0l-6.25 3.62c-.27.15-.3.38-.06.52Zm27.42-15.83a1 1 0 0 0 .91 0l6.23-3.68c.26-.16.29-.39.05-.53l-1.59-.92a1 1 0 0 0-.91 0l-6.25 3.68c-.26.16-.29.39-.05.53Zm12.57 7.25a1 1 0 0 0 .91 0l6.25-3.61c.27-.15.29-.39.06-.52l-6-3.46a1 1 0 0 0-.9 0l-6.28 3.66c-.26.15-.29.38-.05.52ZM356.51 283l6.25-3.61c.27-.15.29-.39.06-.52l-6-3.46a1 1 0 0 0-.9 0l-6.25 3.59c-.26.15-.29.38-.05.52l6 3.45a1 1 0 0 0 .89.03Zm-48.26-16.75a1 1 0 0 0 .91 0l6.26-3.61c.26-.15.29-.39.05-.52l-1.59-.92a1 1 0 0 0-.91 0l-6.26 3.61c-.26.15-.29.39 0 .52ZM233.39 312a1 1 0 0 0 .9 0l6.26-3.61c.26-.15.29-.39 0-.52l-6-3.46a1 1 0 0 0-.91 0l-6.18 3.59c-.27.16-.29.39-.06.53Z" style="fill:#455a64"/><path d="m259.56 364 1.36.79 36.12 20.85 64.23-37.09 1.34-.76-37.48-21.63L259.56 364z" style="fill:#263238"/><path d="m360.44 349.03-35.31-20.38-63.38 36.61 35.29 20.38 63.4-36.61z" style="fill:#37474f"/><path d="M264.41 210.33a2.43 2.43 0 0 1 3-.19l3.43 2.57a1.94 1.94 0 0 0 2.76-.41l6.61-9.11a3.12 3.12 0 0 0 .09-3.29l-2.65-4.1a3.93 3.93 0 0 1-.18-3.46c.84-1.76 1.61-3.56 2.27-5.38a5.73 5.73 0 0 1 2.44-2.77l6.47-3.21a4.25 4.25 0 0 0 2.07-2.86l1.37-9.55a1.31 1.31 0 0 0-.53-1.37l-.09-.05-7.92-4.57a1.53 1.53 0 0 0-1.1-.12l-.74.17a4.76 4.76 0 0 1 .57-2.51l5.48-8.66a2.75 2.75 0 0 0-.28-3.15l-3.48-3.84a1.64 1.64 0 0 0-.49-.35l-8-4.62a1.68 1.68 0 0 0-2.12.45l-5.14 6.19.2-3.45a1.27 1.27 0 0 0-.57-1.26l-8-4.63a1.4 1.4 0 0 0-1.16 0l-7 2.57a4.06 4.06 0 0 0-2.31 2.63l-2 8.91a6.19 6.19 0 0 1-2.06 3.09 48.49 48.49 0 0 0-3.83 3.18 2.34 2.34 0 0 1-1.27.59l-5.4-3.12a1.94 1.94 0 0 0-2.53.55l-6.61 9.11a3.12 3.12 0 0 0-.09 3.29l2.65 4.1a3.93 3.93 0 0 1 .18 3.46c-.84 1.76-1.61 3.56-2.27 5.38a5.73 5.73 0 0 1-2.44 2.77l-6.47 3.21a4.25 4.25 0 0 0-2.07 2.86l-1.37 9.55a1.29 1.29 0 0 0 .57 1.4l8 4.61a1.51 1.51 0 0 0 1.09.11l.74-.17a4.76 4.76 0 0 1-.57 2.51l-5.49 8.61a2.75 2.75 0 0 0 .28 3.15L222 223a1.62 1.62 0 0 0 .44.35l8 4.6a1.65 1.65 0 0 0 2.19-.38l5.14-6.19-.2 3.45a1.27 1.27 0 0 0 .58 1.27l8 4.6a1.41 1.41 0 0 0 1.2.05l7-2.58a4 4 0 0 0 2.31-2.63l2-8.91a6.19 6.19 0 0 1 2.06-3.09 46.4 46.4 0 0 0 3.69-3.21Zm-1.51-43.77a16.59 16.59 0 0 1 1 9.38c-1.49 10.36-9.36 21.2-17.58 24.23a12.32 12.32 0 0 1-3.23.77 16.58 16.58 0 0 1-1-9.41c1.49-10.35 9.36-21.2 17.58-24.23a12.51 12.51 0 0 1 3.23-.74Z" style="fill:#16a34a"/><path d="M264.41 210.33a2.43 2.43 0 0 1 3-.19l3.43 2.57a1.94 1.94 0 0 0 2.76-.41l6.61-9.11a3.12 3.12 0 0 0 .09-3.29l-2.65-4.1a3.93 3.93 0 0 1-.18-3.46c.84-1.76 1.61-3.56 2.27-5.38a5.73 5.73 0 0 1 2.44-2.77l6.47-3.21a4.25 4.25 0 0 0 2.07-2.86l1.37-9.55a1.31 1.31 0 0 0-.53-1.37l-.09-.05-7.92-4.57a1.53 1.53 0 0 0-1.1-.12l-.74.17a4.76 4.76 0 0 1 .57-2.51l5.48-8.66a2.75 2.75 0 0 0-.28-3.15l-3.48-3.84a1.64 1.64 0 0 0-.49-.35l-8-4.62a1.68 1.68 0 0 0-2.12.45l-5.14 6.19.2-3.45a1.27 1.27 0 0 0-.57-1.26l-8-4.63a1.4 1.4 0 0 0-1.16 0l-7 2.57a4.06 4.06 0 0 0-2.31 2.63l-2 8.91a6.19 6.19 0 0 1-2.06 3.09 48.49 48.49 0 0 0-3.83 3.18 2.34 2.34 0 0 1-1.27.59l-5.4-3.12a1.94 1.94 0 0 0-2.53.55l-6.61 9.11a3.12 3.12 0 0 0-.09 3.29l2.65 4.1a3.93 3.93 0 0 1 .18 3.46c-.84 1.76-1.61 3.56-2.27 5.38a5.73 5.73 0 0 1-2.44 2.77l-6.47 3.21a4.25 4.25 0 0 0-2.07 2.86l-1.37 9.55a1.29 1.29 0 0 0 .57 1.4l8 4.61a1.51 1.51 0 0 0 1.09.11l.74-.17a4.76 4.76 0 0 1-.57 2.51l-5.49 8.61a2.75 2.75 0 0 0 .28 3.15L222 223a1.62 1.62 0 0 0 .44.35l8 4.6a1.65 1.65 0 0 0 2.19-.38l5.14-6.19-.2 3.45a1.27 1.27 0 0 0 .58 1.27l8 4.6a1.41 1.41 0 0 0 1.2.05l7-2.58a4 4 0 0 0 2.31-2.63l2-8.91a6.19 6.19 0 0 1 2.06-3.09 46.4 46.4 0 0 0 3.69-3.21Zm-1.51-43.77a16.59 16.59 0 0 1 1 9.38c-1.49 10.36-9.36 21.2-17.58 24.23a12.32 12.32 0 0 1-3.23.77 16.58 16.58 0 0 1-1-9.41c1.49-10.35 9.36-21.2 17.58-24.23a12.51 12.51 0 0 1 3.23-.74Z" style="fill:#fff;opacity:.2"/><path d="M271.89 153.06a3.35 3.35 0 0 0 3.16-.92l6.31-7.6a1.68 1.68 0 0 1 2-.49l-7.9-4.57a1.7 1.7 0 0 0-2.12.44l-5.14 6.19-.27 4.58a1.94 1.94 0 0 0 1.88 2 13.16 13.16 0 0 1 2.08.37Zm11.69 9.5a1.53 1.53 0 0 0-1.09-.13l-.74.18a3.89 3.89 0 0 0 .14 1.06 21.08 21.08 0 0 1 .66 3.22 1.73 1.73 0 0 0 2.15 1.52l5.77-1.36a1.41 1.41 0 0 1 1.09.12ZM271.85 180.56c1.28-8.94-2.59-14.58-9-14a16.58 16.58 0 0 1 1 9.38c-1.49 10.36-9.35 21.21-17.58 24.24a12.56 12.56 0 0 1-3.22.75c1.92 4.11 6 5.78 11.2 3.86 8.25-3.03 16.11-13.88 17.6-24.23Z" style="opacity:.1"/><path d="M236.73 177.63a3.34 3.34 0 0 0-.47-1.34l-2.65-4.11a3.12 3.12 0 0 1-.37-2.12l-8-4.61a3 3 0 0 0 .37 2.11l2.65 4.12a3.47 3.47 0 0 1 .44 1.35Zm-14.34 27.29a1.3 1.3 0 0 1-.58-1.4l1.37-9.54a4.05 4.05 0 0 1 1.09-2.08l-8-4.62a4.13 4.13 0 0 0-1.09 2.08l-1.37 9.56a1.29 1.29 0 0 0 .56 1.39Zm33.06-49.54 2-8.8a3.89 3.89 0 0 1 1.11-1.86l-8-4.61a4 4 0 0 0-1.14 1.85l-2 8.81ZM230.37 228a4.32 4.32 0 0 1-.42-.35l-3.52-3.81a2.75 2.75 0 0 1-.28-3.15l5.47-8.66a3.89 3.89 0 0 0 .52-1.55l-8-4.61a4.18 4.18 0 0 1-.52 1.55l-5.45 8.58a2.76 2.76 0 0 0 .28 3.15L222 223a1.48 1.48 0 0 0 .44.36Zm15.63 2.69a1 1 0 0 1-.24-.23 1 1 0 0 1-.26-.5 1.93 1.93 0 0 1 0-.55l.46-8a1.3 1.3 0 0 0-.05-.53 1.67 1.67 0 0 0-.41-.79 1.86 1.86 0 0 0-.57-.46l-.33-.14a4.64 4.64 0 0 0-.51-.11 13.36 13.36 0 0 1-2-.32 3.35 3.35 0 0 0-3.18.91l-1.16 1.41-.21 3.45a1.3 1.3 0 0 0 .59 1.27Z" style="fill:#16a34a"/><path d="M236.73 177.63a3.34 3.34 0 0 0-.47-1.34l-2.65-4.11a3.12 3.12 0 0 1-.37-2.12l-8-4.61a3 3 0 0 0 .37 2.11l2.65 4.12a3.47 3.47 0 0 1 .44 1.35Zm-14.34 27.29a1.3 1.3 0 0 1-.58-1.4l1.37-9.54a4.05 4.05 0 0 1 1.09-2.08l-8-4.62a4.13 4.13 0 0 0-1.09 2.08l-1.37 9.56a1.29 1.29 0 0 0 .56 1.39Zm33.06-49.54 2-8.8a3.89 3.89 0 0 1 1.11-1.86l-8-4.61a4 4 0 0 0-1.14 1.85l-2 8.81ZM230.37 228a4.32 4.32 0 0 1-.42-.35l-3.52-3.81a2.75 2.75 0 0 1-.28-3.15l5.47-8.66a3.89 3.89 0 0 0 .52-1.55l-8-4.61a4.18 4.18 0 0 1-.52 1.55l-5.45 8.58a2.76 2.76 0 0 0 .28 3.15L222 223a1.48 1.48 0 0 0 .44.36Zm15.63 2.69a1 1 0 0 1-.24-.23 1 1 0 0 1-.26-.5 1.93 1.93 0 0 1 0-.55l.46-8a1.3 1.3 0 0 0-.05-.53 1.67 1.67 0 0 0-.41-.79 1.86 1.86 0 0 0-.57-.46l-.33-.14a4.64 4.64 0 0 0-.51-.11 13.36 13.36 0 0 1-2-.32 3.35 3.35 0 0 0-3.18.91l-1.16 1.41-.21 3.45a1.3 1.3 0 0 0 .59 1.27Z" style="fill:#fff;opacity:.7000000000000001"/><path d="m256.53 225.51 2-8.91a6.19 6.19 0 0 1 2.06-3.09 44.8 44.8 0 0 0 3.83-3.18 2.43 2.43 0 0 1 3-.19l3.43 2.57a1.94 1.94 0 0 0 2.76-.41l6.61-9.11a3.12 3.12 0 0 0 .09-3.29l-2.65-4.1a3.93 3.93 0 0 1-.18-3.46c.84-1.76 1.61-3.56 2.27-5.38a5.73 5.73 0 0 1 2.44-2.77l6.47-3.21a4.25 4.25 0 0 0 2.07-2.86l1.37-9.55a1.26 1.26 0 0 0-1.65-1.52l-5.78 1.36a1.72 1.72 0 0 1-2.14-1.53 25.26 25.26 0 0 0-.67-3.21 5 5 0 0 1 .43-3.57l5.48-8.66a2.75 2.75 0 0 0-.28-3.15l-3.49-3.82a1.69 1.69 0 0 0-2.62.07l-6.31 7.6a3.36 3.36 0 0 1-3.16.92 15 15 0 0 0-2-.34 2 2 0 0 1-1.88-2l.47-8a1.2 1.2 0 0 0-1.75-1.3l-7 2.57a4.08 4.08 0 0 0-2.3 2.63l-2 8.91a6 6 0 0 1-2.06 3.09 46.63 46.63 0 0 0-3.82 3.18 2.44 2.44 0 0 1-3 .19l-3.43-2.57a2 2 0 0 0-2.76.42l-6.61 9.11a3.15 3.15 0 0 0-.09 3.28l2.65 4.1a3.94 3.94 0 0 1 .19 3.46c-.85 1.76-1.61 3.56-2.28 5.38a5.76 5.76 0 0 1-2.43 2.77l-6.48 3.22a4.28 4.28 0 0 0-2.07 2.85l-1.37 9.56a1.27 1.27 0 0 0 1.66 1.51l5.77-1.36a1.74 1.74 0 0 1 2.15 1.53 25.28 25.28 0 0 0 .66 3.21 5 5 0 0 1-.43 3.58l-5.48 8.65a2.75 2.75 0 0 0 .29 3.15l3.51 3.82a1.69 1.69 0 0 0 2.62-.07l6.31-7.59a3.31 3.31 0 0 1 3.05-1 13.49 13.49 0 0 0 2.05.33 2 2 0 0 1 1.87 2l-.47 8a1.21 1.21 0 0 0 1.75 1.3l7-2.58a4 4 0 0 0 2.33-2.54Zm-2.26-20.72c-8.22 3-13.68-2.91-12.19-13.26s9.36-21.2 17.58-24.23 13.68 2.9 12.19 13.26-9.35 21.2-17.58 24.23Z" style="fill:#16a34a"/><g style="opacity:.55"><path d="m256.53 225.51 2-8.91a6.19 6.19 0 0 1 2.06-3.09 44.8 44.8 0 0 0 3.83-3.18 2.43 2.43 0 0 1 3-.19l3.43 2.57a1.94 1.94 0 0 0 2.76-.41l6.61-9.11a3.12 3.12 0 0 0 .09-3.29l-2.65-4.1a3.93 3.93 0 0 1-.18-3.46c.84-1.76 1.61-3.56 2.27-5.38a5.73 5.73 0 0 1 2.44-2.77l6.47-3.21a4.25 4.25 0 0 0 2.07-2.86l1.37-9.55a1.26 1.26 0 0 0-1.65-1.52l-5.78 1.36a1.72 1.72 0 0 1-2.14-1.53 25.26 25.26 0 0 0-.67-3.21 5 5 0 0 1 .43-3.57l5.48-8.66a2.75 2.75 0 0 0-.28-3.15l-3.49-3.82a1.69 1.69 0 0 0-2.62.07l-6.31 7.6a3.36 3.36 0 0 1-3.16.92 15 15 0 0 0-2-.34 2 2 0 0 1-1.88-2l.47-8a1.2 1.2 0 0 0-1.75-1.3l-7 2.57a4.08 4.08 0 0 0-2.3 2.63l-2 8.91a6 6 0 0 1-2.06 3.09 46.63 46.63 0 0 0-3.82 3.18 2.44 2.44 0 0 1-3 .19l-3.43-2.57a2 2 0 0 0-2.76.42l-6.61 9.11a3.15 3.15 0 0 0-.09 3.28l2.65 4.1a3.94 3.94 0 0 1 .19 3.46c-.85 1.76-1.61 3.56-2.28 5.38a5.76 5.76 0 0 1-2.43 2.77l-6.48 3.22a4.28 4.28 0 0 0-2.07 2.85l-1.37 9.56a1.27 1.27 0 0 0 1.66 1.51l5.77-1.36a1.74 1.74 0 0 1 2.15 1.53 25.28 25.28 0 0 0 .66 3.21 5 5 0 0 1-.43 3.58l-5.48 8.65a2.75 2.75 0 0 0 .29 3.15l3.51 3.82a1.69 1.69 0 0 0 2.62-.07l6.31-7.59a3.31 3.31 0 0 1 3.05-1 13.49 13.49 0 0 0 2.05.33 2 2 0 0 1 1.87 2l-.47 8a1.21 1.21 0 0 0 1.75 1.3l7-2.58a4 4 0 0 0 2.33-2.54Zm-2.26-20.72c-8.22 3-13.68-2.91-12.19-13.26s9.36-21.2 17.58-24.23 13.68 2.9 12.19 13.26-9.35 21.2-17.58 24.23Z" style="fill:#fff"/><path d="M246.64 231.39a1.72 1.72 0 0 1-1-.32 1.9 1.9 0 0 1-.68-1.69l.47-8a1.4 1.4 0 0 0-1.37-1.45 14.78 14.78 0 0 1-2.13-.34 2.74 2.74 0 0 0-2.6.73L233 227.9a2.26 2.26 0 0 1-3.46.09l-3.54-3.82a3.29 3.29 0 0 1-.35-3.82l5.48-8.66a4.44 4.44 0 0 0 .37-3.13 25 25 0 0 1-.68-3.28 1.3 1.3 0 0 0-.53-.91 1.14 1.14 0 0 0-.94-.16l-5.78 1.36a1.81 1.81 0 0 1-2.33-2.13l1.37-9.56a4.82 4.82 0 0 1 2.37-3.27l6.48-3.22a5.2 5.2 0 0 0 2.16-2.46 57.66 57.66 0 0 1 2.3-5.43 3.37 3.37 0 0 0-.16-2.91l-2.64-4.11a3.66 3.66 0 0 1 .1-3.91l6.61-9.11a2.53 2.53 0 0 1 3.55-.54l3.42 2.58a1.9 1.9 0 0 0 2.32-.15 47 47 0 0 1 3.87-3.23 5.56 5.56 0 0 0 1.85-2.76l2-8.91a4.6 4.6 0 0 1 2.66-3l7-2.58a1.76 1.76 0 0 1 2.5 1.86l-.47 8a1.38 1.38 0 0 0 1.37 1.44 13.59 13.59 0 0 1 2.12.35 2.79 2.79 0 0 0 2.61-.74l6.31-7.59a2.23 2.23 0 0 1 3.45-.09l3.51 3.81a3.3 3.3 0 0 1 .35 3.83l-5.47 8.66a4.36 4.36 0 0 0-.37 3.12 25.52 25.52 0 0 1 .68 3.29 1.26 1.26 0 0 0 .52.9 1.14 1.14 0 0 0 .94.16l5.78-1.36a1.82 1.82 0 0 1 2.33 2.14l-1.37 9.55a4.81 4.81 0 0 1-2.37 3.28l-6.48 3.21a5.25 5.25 0 0 0-2.16 2.46 59.29 59.29 0 0 1-2.29 5.44 3.37 3.37 0 0 0 .15 2.91l2.65 4.1a3.68 3.68 0 0 1-.11 3.91l-6.61 9.11a2.49 2.49 0 0 1-3.54.54l-3.43-2.57a1.87 1.87 0 0 0-2.31.15 47.25 47.25 0 0 1-3.88 3.22 5.61 5.61 0 0 0-1.85 2.76l-2 8.91a4.65 4.65 0 0 1-2.65 3l-7 2.57a2.31 2.31 0 0 1-.77.19Zm-5.36-13a3.8 3.8 0 0 1 .89.11 14.2 14.2 0 0 0 2 .32 2.5 2.5 0 0 1 2.38 2.61l-.47 8a.66.66 0 0 0 1 .74l7-2.57a3.49 3.49 0 0 0 1.95-2.23l2-8.91a6.8 6.8 0 0 1 2.27-3.42 46.54 46.54 0 0 0 3.78-3.14 3 3 0 0 1 3.74-.22l3.42 2.57a1.39 1.39 0 0 0 2-.3l6.61-9.11a2.57 2.57 0 0 0 .07-2.66l-2.64-4.1a4.5 4.5 0 0 1-.23-4 57.08 57.08 0 0 0 2.26-5.33 6.28 6.28 0 0 1 2.71-3.08l6.48-3.21a3.7 3.7 0 0 0 1.76-2.44l1.37-9.55a.86.86 0 0 0-.19-.77.88.88 0 0 0-.79-.13l-5.84 1.43a2.29 2.29 0 0 1-1.83-.32 2.35 2.35 0 0 1-1-1.67 25.26 25.26 0 0 0-.66-3.14 5.59 5.59 0 0 1 .5-4l5.48-8.66a2.19 2.19 0 0 0-.22-2.47l-3.51-3.82a1.14 1.14 0 0 0-1.79.05l-6.31 7.59a3.86 3.86 0 0 1-3.72 1.11 12.52 12.52 0 0 0-2-.32 2.5 2.5 0 0 1-2.38-2.62l.47-8a.67.67 0 0 0-1-.74l-7 2.57a3.52 3.52 0 0 0-1.95 2.23l-2 8.91a6.67 6.67 0 0 1-2.28 3.42 44.78 44.78 0 0 0-3.77 3.14 3 3 0 0 1-3.74.23l-3.43-2.58a1.41 1.41 0 0 0-1.05-.26 1.39 1.39 0 0 0-.93.56l-6.61 9.11a2.59 2.59 0 0 0-.07 2.66l2.65 4.1a4.5 4.5 0 0 1 .22 4c-.85 1.76-1.61 3.56-2.26 5.33a6.24 6.24 0 0 1-2.71 3.08l-6.47 3.22a3.7 3.7 0 0 0-1.77 2.43l-1.37 9.55a.85.85 0 0 0 .2.78.86.86 0 0 0 .78.12l5.78-1.36a2.27 2.27 0 0 1 1.82.32 2.38 2.38 0 0 1 1 1.67 22.93 22.93 0 0 0 .65 3.14 5.52 5.52 0 0 1-.5 4l-5.48 8.66a2.19 2.19 0 0 0 .23 2.48l3.51 3.81a1.14 1.14 0 0 0 1.78 0l6.31-7.6a3.74 3.74 0 0 1 2.9-1.33Zm8.92-12.25a8.08 8.08 0 0 1-5.2-1.76c-3-2.45-4.3-7.16-3.47-12.92 1.51-10.52 9.56-21.59 17.94-24.68 3.68-1.35 7-1 9.47.94 3 2.46 4.29 7.17 3.47 12.92-1.52 10.52-9.56 21.59-17.94 24.68a12.39 12.39 0 0 1-4.27.81Zm13.53-39.06a11.32 11.32 0 0 0-3.88.75c-8 3-15.76 13.63-17.22 23.79-.77 5.36.35 9.7 3.07 11.9 2.1 1.7 5.08 2 8.38.75 8-3 15.76-13.63 17.22-23.78.77-5.36-.34-9.7-3.06-11.9a7 7 0 0 0-4.51-1.52Z" style="fill:#fff"/></g><path d="m158.84 278.23 13.39-7.73a3.58 3.58 0 0 0 1.59-2.5l1.34-14.89a5 5 0 0 1 1.4-2.78 80.72 80.72 0 0 0 7.43-7.87 2.58 2.58 0 0 1 2.63-.75l8.59 3a2.09 2.09 0 0 0 2.41-.89l9.84-17a2.07 2.07 0 0 0-.43-2.53l-6.89-5.94a2.58 2.58 0 0 1-.67-2.66 80.63 80.63 0 0 0 3.1-10.37 5 5 0 0 1 1.71-2.59l12.23-8.61a3.62 3.62 0 0 0 1.36-2.63V176a1.09 1.09 0 0 0-.47-1l-10-5.82a1.14 1.14 0 0 0-1.05 0l-6.92 3.12a3 3 0 0 1 .22-1.63l7.94-16a1.8 1.8 0 0 0-.71-2.33l-6.56-3.79-12.07-7a1.8 1.8 0 0 0-2.37.56L175.94 157a3.08 3.08 0 0 1-1.34 1l-.76-7.5a1.12 1.12 0 0 0-.5-.91l-10.05-5.84a1.09 1.09 0 0 0-1.09.09l-13.39 7.73a3.59 3.59 0 0 0-1.59 2.49l-1.35 14.9a5 5 0 0 1-1.39 2.78 80.72 80.72 0 0 0-7.43 7.87 2.55 2.55 0 0 1-2.63.74l-8.59-3a2.11 2.11 0 0 0-2.42.9l-9.84 17a2.11 2.11 0 0 0 .43 2.54l6.9 5.94a2.56 2.56 0 0 1 .67 2.65 81.11 81.11 0 0 0-3.1 10.37 5 5 0 0 1-1.71 2.6L104.53 228a3.63 3.63 0 0 0-1.37 2.63V246a1.12 1.12 0 0 0 .46 1l10.06 5.85a1.1 1.1 0 0 0 1 0l6.92-3.12a3 3 0 0 1-.22 1.63l-7.94 16a1.8 1.8 0 0 0 .71 2.33l10 5.8 8.62 5a1.8 1.8 0 0 0 2.37-.56l9.89-14.88a2.94 2.94 0 0 1 1.34-1l.76 7.5a1.09 1.09 0 0 0 .5.9l10 5.84a1.08 1.08 0 0 0 1.21-.06ZM178 185c2.29 2.43 3.58 6.48 3.58 12.12 0 14.42-10.12 32-22.61 39.16-4.58 2.65-8.6 3.78-11.85 3.46-2.63-2.75-4.19-7.07-4.19-12.71 0-14.42 10.13-31.95 22.62-39.16 4.59-2.71 8.86-3.59 12.45-2.87Z" style="fill:#16a34a"/><path d="m158.84 278.23 13.39-7.73a3.58 3.58 0 0 0 1.59-2.5l1.34-14.89a5 5 0 0 1 1.4-2.78 80.72 80.72 0 0 0 7.43-7.87 2.58 2.58 0 0 1 2.63-.75l8.59 3a2.09 2.09 0 0 0 2.41-.89l9.84-17a2.07 2.07 0 0 0-.43-2.53l-6.89-5.94a2.58 2.58 0 0 1-.67-2.66 80.63 80.63 0 0 0 3.1-10.37 5 5 0 0 1 1.71-2.59l12.23-8.61a3.62 3.62 0 0 0 1.36-2.63V176a1.09 1.09 0 0 0-.47-1l-10-5.82a1.14 1.14 0 0 0-1.05 0l-6.92 3.12a3 3 0 0 1 .22-1.63l7.94-16a1.8 1.8 0 0 0-.71-2.33l-6.56-3.79-12.07-7a1.8 1.8 0 0 0-2.37.56L175.94 157a3.08 3.08 0 0 1-1.34 1l-.76-7.5a1.12 1.12 0 0 0-.5-.91l-10.05-5.84a1.09 1.09 0 0 0-1.09.09l-13.39 7.73a3.59 3.59 0 0 0-1.59 2.49l-1.35 14.9a5 5 0 0 1-1.39 2.78 80.72 80.72 0 0 0-7.43 7.87 2.55 2.55 0 0 1-2.63.74l-8.59-3a2.11 2.11 0 0 0-2.42.9l-9.84 17a2.11 2.11 0 0 0 .43 2.54l6.9 5.94a2.56 2.56 0 0 1 .67 2.65 81.11 81.11 0 0 0-3.1 10.37 5 5 0 0 1-1.71 2.6L104.53 228a3.63 3.63 0 0 0-1.37 2.63V246a1.12 1.12 0 0 0 .46 1l10.06 5.85a1.1 1.1 0 0 0 1 0l6.92-3.12a3 3 0 0 1-.22 1.63l-7.94 16a1.8 1.8 0 0 0 .71 2.33l10 5.8 8.62 5a1.8 1.8 0 0 0 2.37-.56l9.89-14.88a2.94 2.94 0 0 1 1.34-1l.76 7.5a1.09 1.09 0 0 0 .5.9l10 5.84a1.08 1.08 0 0 0 1.21-.06ZM178 185c2.29 2.43 3.58 6.48 3.58 12.12 0 14.42-10.12 32-22.61 39.16-4.58 2.65-8.6 3.78-11.85 3.46-2.63-2.75-4.19-7.07-4.19-12.71 0-14.42 10.13-31.95 22.62-39.16 4.59-2.71 8.86-3.59 12.45-2.87Z" style="opacity:.30000000000000004"/><path d="M124 275.42a1.84 1.84 0 0 1-.51-2.21l7.94-16a2.45 2.45 0 0 0 .24-.9l-10-5.83a2.42 2.42 0 0 1-.22.88l-7.93 16a1.79 1.79 0 0 0 .69 2.33Zm33.72 2.9a.71.71 0 0 1-.28-.24.73.73 0 0 1-.19-.36 1.42 1.42 0 0 1-.06-.31l-1.3-13a1.21 1.21 0 0 0-.08-.34 1.39 1.39 0 0 0-.4-.62 1.48 1.48 0 0 0-.38-.23l-.22-.07a1.7 1.7 0 0 0-.71 0 1.71 1.71 0 0 1-.3.05 26.66 26.66 0 0 1-6.15.61 3.39 3.39 0 0 0-1.25.25l.75 7.52a1.16 1.16 0 0 0 .51.9Zm-44.15-25.5a1.16 1.16 0 0 1-.4-.95v-15.46a3.61 3.61 0 0 1 .72-2l-10-5.81a3.57 3.57 0 0 0-.73 2V246a1.11 1.11 0 0 0 .44 1Zm41.93-76.76a4.21 4.21 0 0 0 .39-1.31l1.34-14.89a2.72 2.72 0 0 1 .38-1.18l-10-5.82a3.46 3.46 0 0 0-.4 1.17l-1.33 14.89a4.35 4.35 0 0 1-.4 1.31Zm-32 26.9a2 2 0 0 1 .06-1.87l9.88-17.09a2.07 2.07 0 0 1 1-.82l-10-5.82a2 2 0 0 0-1 .82l-9.83 17a2.1 2.1 0 0 0 0 2Z" style="opacity:.2"/><path d="m173.82 268 1.34-14.89a5 5 0 0 1 1.4-2.78 80.72 80.72 0 0 0 7.43-7.87 2.58 2.58 0 0 1 2.63-.75l8.59 3a2.09 2.09 0 0 0 2.41-.89l9.84-17a2.07 2.07 0 0 0-.43-2.53l-6.89-5.94a2.58 2.58 0 0 1-.67-2.66 80.63 80.63 0 0 0 3.1-10.37 5 5 0 0 1 1.71-2.59l12.23-8.61a3.62 3.62 0 0 0 1.36-2.63V176a1 1 0 0 0-1.52-1l-11.91 5.37a1.42 1.42 0 0 1-2-.92 26.62 26.62 0 0 0-2.65-5.91 3.28 3.28 0 0 1-.18-2.88l7.94-16a1.8 1.8 0 0 0-.71-2.33l-8.61-5a1.82 1.82 0 0 0-2.38.55l-9.85 14.9a3.29 3.29 0 0 1-2.59 1.28 26.68 26.68 0 0 0-6.45.66 1.41 1.41 0 0 1-1.78-1.26l-1.31-13a1 1 0 0 0-1.61-.83l-13.39 7.73a3.59 3.59 0 0 0-1.59 2.49l-1.34 14.9a5.09 5.09 0 0 1-1.39 2.78 79.62 79.62 0 0 0-7.44 7.87 2.55 2.55 0 0 1-2.63.74l-8.59-3a2.1 2.1 0 0 0-2.41.9l-9.84 17a2.1 2.1 0 0 0 .43 2.54l6.89 5.94a2.56 2.56 0 0 1 .67 2.65 81.11 81.11 0 0 0-3.1 10.37 5 5 0 0 1-1.71 2.6l-12.23 8.61a3.6 3.6 0 0 0-1.36 2.63v15.45a1 1 0 0 0 1.52 1l11.91-5.37a1.42 1.42 0 0 1 2 .91 26.62 26.62 0 0 0 2.65 5.91 3.3 3.3 0 0 1 .18 2.89l-7.94 16a1.8 1.8 0 0 0 .71 2.33l8.62 5a1.8 1.8 0 0 0 2.37-.56l9.89-14.88a3.3 3.3 0 0 1 2.59-1.29 27.16 27.16 0 0 0 6.45-.65 1.41 1.41 0 0 1 1.78 1.26l1.31 13a1 1 0 0 0 1.61.83l13.39-7.73a3.58 3.58 0 0 0 1.55-2.48Zm-8.28-28c-12.49 7.21-22.62 1.36-22.62-13.06s10.13-31.95 22.62-39.16 22.61-1.37 22.61 13.05-10.15 32-22.61 39.17ZM360.94 94.78l2.69-5.07-2.17-6.26v-3.83l6.64 3.83v3.83l-2.85 4.94a.43.43 0 0 1-.2.18Z" style="fill:#16a34a"/><path d="m360.94 94.78 2.69-5.07-2.17-6.26v-3.83l6.64 3.83v3.83l-2.85 4.94a.43.43 0 0 1-.2.18Z" style="opacity:.2"/><path d="M345.1 49.18a4.41 4.41 0 0 1 2-3.45l1.61-.93a4.37 4.37 0 0 1 4 0l24.84 14.36a4.41 4.41 0 0 1 2 3.45v27.32a4.41 4.41 0 0 1-2 3.45l-1.62.93a4.37 4.37 0 0 1-4 0l-8-4.61-2.84 4.93a.43.43 0 0 1-.77-.08l-3-8.68L347.08 80a4.43 4.43 0 0 1-2-3.45Z" style="fill:#16a34a"/><path d="M379.51 89.93a4.41 4.41 0 0 1-2 3.45l-1.62.93a4.47 4.47 0 0 1-3.64.16c.94.36 1.65-.17 1.65-1.31V65.84a4 4 0 0 0-.58-2l5.59-3.23a4 4 0 0 1 .59 2Z" style="opacity:.2"/><path d="M345.16 48.61c.23-.84 1-1.11 1.92-.58l24.84 14.36a4 4 0 0 1 1.4 1.49l5.6-3.23a4 4 0 0 0-1.4-1.48L352.69 44.8a4.43 4.43 0 0 0-4 0l-1.63.94a4.4 4.4 0 0 0-1.9 2.87Z" style="fill:#fff;opacity:.30000000000000004"/><path d="M351.07 70a4.09 4.09 0 0 0 1.44 2.58 3.17 3.17 0 0 0-.21 1.24 3.94 3.94 0 0 0 1.9 3l8.57 5V70.58s-2.36-5.37-2.57-6.15a24.48 24.48 0 0 1 0-4 2 2 0 0 0-2.3-1 1 1 0 0 0-.5.56 6.17 6.17 0 0 0-.52 1.78 9.11 9.11 0 0 0 .18 3.19l-5.19-3a1 1 0 0 0-1-.14 1.24 1.24 0 0 0-.54 1.12 3.83 3.83 0 0 0 .83 2.23s-1-.31-1 1.08a3.63 3.63 0 0 0 1.27 2.54s-.36.21-.36 1.21ZM367.75 73.61v12.07c0 .27-.19.38-.42.24l-2.89-1.66a.94.94 0 0 1-.42-.73V71.47c0-.27.19-.38.42-.25l2.9 1.67a.88.88 0 0 1 .41.72Z" style="fill:#fafafa"/><path d="M90.55 36.29C83.75 32.43 74.4 33 64.08 39 43.3 51 26.46 80.15 26.46 104.14c0 12 4.21 20.4 11 24.33 2.83 1.64 10 5.76 12.85 7.39 6.8 3.92 16.19 3.35 26.57-2.64 20.77-12 37.61-41.16 37.61-65.15 0-12-4.19-20.36-11-24.31-2.79-1.65-10.06-5.83-12.94-7.47Z" style="fill:#16a34a"/><path d="M90.55 36.29C83.75 32.43 74.4 33 64.08 39 43.3 51 26.46 80.15 26.46 104.14c0 12 4.21 20.4 11 24.33 2.83 1.64 10 5.76 12.85 7.39 6.8 3.92 16.19 3.35 26.57-2.64 20.77-12 37.61-41.16 37.61-65.15 0-12-4.19-20.36-11-24.31-2.79-1.65-10.06-5.83-12.94-7.47Z" style="opacity:.15"/><ellipse cx="76.89" cy="89.79" rx="53.2" ry="30.71" style="fill:#16a34a" transform="rotate(-60 76.885 89.792)"/><path d="M101.29 97.78s1.71 14.92 18.24 18.6c1.27.28 1.21 1.71.14 2.47-2.06 1.45-9.46 4.58-17.71 2.55-11.49-2.84-14.76-8-14.76-8Z" style="fill:#16a34a"/><path d="m73.49 65.42-17.78 51.32c-1.85 5.35.64 7.41 5.54 4.58l31.21-18a10.28 10.28 0 0 0 3.76-14L82 64.61c-2.83-4.9-6.66-4.54-8.51.81Z" style="fill:#fafafa"/><path d="m78.78 96.1-2.71 1.56a.58.58 0 0 1-.95-.51L74 76.84a1.83 1.83 0 0 1 .84-1.54l5.13-3c.5-.28.87 0 .84.52l-1.1 21.7a2.12 2.12 0 0 1-.93 1.58ZM77.43 107c-1.73 1-2.77-.3-2.77-2.09a6.55 6.55 0 0 1 2.77-5.29c1.73-1 2.76.29 2.76 2.09a6.54 6.54 0 0 1-2.76 5.29Z" style="fill:#455a64"/><path d="M108 403c3.66-2.11 6.62-.4 6.62 3.82a14.65 14.65 0 0 1-6.62 11.49c-3.65 2.11-6.62.39-6.62-3.83A14.64 14.64 0 0 1 108 403Z" style="fill:#e0e0e0"/><path d="M38.62 353.28c-1.93-1.34-4.7-1.29-7.79.49-5.8 3.35-10.51 11.5-10.51 18.2 0 3.71 1.44 6.19 3.71 7.1 4.82 2.7 10.76.09 10.76.09l8.43-16.75c-.02-4.41-1.79-7.41-4.6-9.13Z" style="fill:#16a34a"/><path d="M38.62 353.28c-1.93-1.34-4.7-1.29-7.79.49-5.8 3.35-10.51 11.5-10.51 18.2 0 3.71 1.44 6.19 3.71 7.1 4.82 2.7 10.76.09 10.76.09l8.43-16.75c-.02-4.41-1.79-7.41-4.6-9.13Z" style="opacity:.1"/><path d="M32.49 370.88a13.46 13.46 0 0 1-11-5.15 18.84 18.84 0 0 0-1.18 6.27c0 3.71 1.44 6.19 3.71 7.1 4 2.26 8.84.81 10.31.27a1 1 0 0 1 .45-.18l2.72-5.41Z" style="opacity:.1"/><path d="M129 416.77s-14.69-13.3-16.24-14.19L43.2 362.44c-1.2-.67-2.84-.57-4.65.48a14.61 14.61 0 0 0-6.62 11.46c0 2.11.74 3.59 1.93 4.28.29.16 66.64 38.48 69.5 40.12s20.34 7 20.34 7a2.63 2.63 0 0 0 2.53-.3 8.11 8.11 0 0 0 3.68-6.37 2.71 2.71 0 0 0-.91-2.34Z" style="fill:#16a34a"/><path d="M129.89 419.05a2.71 2.71 0 0 0-.92-2.28s-13.58-12.29-16-14c-1.22-.88-3-.86-5 .28a14.64 14.64 0 0 0-6.62 11.46c0 2.12.75 3.6 2 4.29 2.87 1.65 20.34 7 20.34 7a2.63 2.63 0 0 0 2.53-.3 8.11 8.11 0 0 0 3.67-6.45Z" style="opacity:.1"/><path d="M70.24 399.67c-1.2-.69-1.94-2.18-1.94-4.29a14.61 14.61 0 0 1 6.62-11.46c1.82-1.06 3.48-1.16 4.68-.47 0 0 3.83 1.56 16.31 8.11s10.19 7.19 10.19 7.19l-.9-.51c-1.2-.69-2.85-.59-4.68.46a14.61 14.61 0 0 0-6.62 11.46c0 2.11.74 3.6 1.94 4.29l1.2.69s-1.63.53-10.22-4.48a196.28 196.28 0 0 1-16.58-10.99Z" style="fill:#37474f"/><path d="M74.92 383.92c1.82-1.06 3.48-1.16 4.68-.47 0 0 3.83 1.56 16.31 8.11s10.19 7.19 10.19 7.19l-.9-.51c-1.2-.69-2.85-.59-4.68.46a11.6 11.6 0 0 0-2.81 2.35l-25.6-14.79a11.59 11.59 0 0 1 2.81-2.34Z" style="fill:#455a64"/><path d="M122.53 423.3a8.14 8.14 0 0 1 3.68-6.38c2-1.17 3.68-.22 3.68 2.13a8.11 8.11 0 0 1-3.68 6.37c-2.03 1.18-3.68.23-3.68-2.12Z" style="opacity:.25"/><path d="M168.57 445.37a.48.48 0 0 1-.22.39.16.16 0 0 1-.13 0c-.33-.11-5.29-1.94-6.84-2.59a2.62 2.62 0 0 1-.38-.17l-35.51-20.49a.78.78 0 0 1-.33-.71 2.24 2.24 0 0 1 .32-1.09 2.31 2.31 0 0 1 .77-.81.79.79 0 0 1 .77-.08l35.52 20.51a9.54 9.54 0 0 1 .95.68c1.74 1.32 4.85 4 5.08 4.22a.14.14 0 0 1 0 .14Z" style="fill:#455a64"/><path d="M168.57 445.37a.48.48 0 0 1-.22.39.16.16 0 0 1-.13 0c-.33-.11-5.29-1.94-6.84-2.59.46-.43 1.44-.2 2.4.23s4.24 2.19 4.41 2-2.09-1.56-3.45-2.54-1.67-1.79-1.29-1.85c1.74 1.32 4.85 4 5.08 4.22a.14.14 0 0 1 .04.14Z" style="fill:#37474f"/><path d="M126.6 420.28S162 440.62 162.51 441c.27.2.51.7 1.11 1.25a22.6 22.6 0 0 0 2.83 2c2.27 1.45-.6.17-3.13-1.55-.59-.4-.7-1.35-1.35-1.72-3-1.68-36.14-19.94-36.14-19.94s.35-.65.77-.76Z" style="fill:#fff;opacity:.2"/><path d="m415.71 369 2-17.64-20.09-1.81s.85 13.6.73 19.83c-.06 2.94-2.13 8.47-2.13 8.47s8.41 4.37 12.77 2.58 7.25-8.66 7.15-9.92-.43-1.51-.43-1.51Z" style="fill:#ffbda7"/><path d="M372.91 396.8c-.28 0-.49 2.56 1 3.82a19.87 19.87 0 0 0 14.11 3.23c6.72-1 10.34-3.09 13-5.36s6.38-5.47 9.42-6.19a21.86 21.86 0 0 0 7.52-3.87c.89-.88.69-4.71.69-4.71Z" style="fill:#263238"/><path d="M415.72 369a1.07 1.07 0 0 1 1 .88c.23 1.05.51 4.12 1 5.85a30.81 30.81 0 0 1 .84 9.3c-.34 2-5.68 4.43-8.61 5.59a37.43 37.43 0 0 0-9.45 6.11c-3.12 2.63-9.74 5.42-14.14 5.47-5.2.05-11.08-1.51-12.47-3.86-1.71-2.91-3-6.3 4.66-10 1.45-.7 6.52-3.77 8.24-4.89 4.68-3 7.95-5.75 10-11a2.93 2.93 0 0 1 1.08-1.6 2.47 2.47 0 0 1 1.5-.16c1.29.15 6.42.76 7.6 1.29s2.53 1 2.53 2.31a4.31 4.31 0 0 1-.27 1.33c-.08.27-.15.63.09.78s.52 0 .72-.21a19.52 19.52 0 0 0 2-2.49 23.32 23.32 0 0 1 1.94-2.26 12.85 12.85 0 0 0 1.31-.86c.54-.39.41-.96.43-1.58Z" style="fill:#455a64"/><path d="M400.52 396.74c1.32-1.11 2.73-2.19 4.15-3.16s-9 5.59-12.68 3.18c-2.39-1.54-1.3-3.49-1.26-4.11s-8.37-4.82-10.67-5.05c-.63.36-1.15.66-1.49.81-6 2.47-6.72 5.54-5.65 9.37 1.38 2.35 6.65 4.71 13.37 4.59 4.4-.08 11.11-3 14.23-5.63Z" style="fill:#37474f"/><path d="M391.33 390.83c-4.76 2-2.7 2.82-1.35 3s9.33-4.62 14.18-8.54c5.06-4.09 9-9.53 10.84-11 .7-.56 1.46-1.24 2.12-1.88-.14-1-.26-2-.37-2.48a1.07 1.07 0 0 0-1-.88c0 .61.11 1.18-.35 1.65a12.85 12.85 0 0 1-1.31.86 23.32 23.32 0 0 0-1.94 2.26 20.24 20.24 0 0 1-2 2.49c-4.15 5.27-14.06 12.55-18.82 14.52Z" style="fill:#37474f"/><path d="M390.31 393.12a.5.5 0 0 0 .3-.11.46.46 0 0 0 .05-.66c-1.38-1.61-7.87-5.37-11.39-4.93a.47.47 0 0 0-.41.52.46.46 0 0 0 .53.41c3.29-.41 9.45 3.33 10.55 4.6a.48.48 0 0 0 .37.17ZM394.44 390.51a.48.48 0 0 0 .3-.11.46.46 0 0 0 .06-.66c-1.39-1.61-7.87-5.37-11.39-4.93a.47.47 0 1 0 .11.93c3.29-.4 9.46 3.33 10.55 4.6a.48.48 0 0 0 .37.17ZM398.58 388a.48.48 0 0 0 .3-.11.47.47 0 0 0 .06-.66c-1.39-1.61-7.87-5.37-11.4-4.93a.47.47 0 1 0 .12.93c3.29-.41 9.46 3.33 10.55 4.6a.5.5 0 0 0 .37.17ZM402.41 385.23a.5.5 0 0 0 .3-.11.46.46 0 0 0 .05-.66c-1.38-1.61-7.88-5.37-11.39-4.93a.46.46 0 0 0-.41.52.47.47 0 0 0 .53.41c3.28-.4 9.45 3.33 10.55 4.6a.48.48 0 0 0 .37.17ZM406.15 382.42a.48.48 0 0 0 .3-.11.45.45 0 0 0 .06-.65c-1.9-2.28-8.68-5.4-12.2-5a.46.46 0 1 0 .12.92c3.17-.39 9.66 2.61 11.35 4.63a.46.46 0 0 0 .37.21Z" style="fill:#263238"/><path d="m449 377.32-4.78-21.18 20.9-3.26.34 20.91s1.59 5.62.42 7.56-13.74 4-14.89 2.68-1.99-6.71-1.99-6.71Z" style="fill:#ffbda7"/><path d="M451.1 410.71c.55 4.75 1.54 7.82 3.6 10.4s5.72 3 9.34 1.74 8.22-4.05 9.07-8.31.49-7.06-.56-11.4Z" style="fill:#263238"/><path d="M465.47 373.79c1.51-.08 1.1 3.66 1.82 10.07.77 6.93 3.89 12.36 5 17.92 1.27 6.35 1 9.29-1.34 13.51s-11.23 9.17-16 4.11c-3.86-4.12-4.26-9.16-4.25-15.66a143.39 143.39 0 0 0-.47-16.47c-.53-4.81-2.55-9.25-1.26-9.95.14.7 1.42 5.57 2.27 5.49a8.63 8.63 0 0 0-.07-1.83 2 2 0 0 1 .34-1.61 7 7 0 0 1 2.43-1.24c1.48-.44 4.11-1 5.61-1.3.75-.15 1.51-.27 2.26-.36a6.56 6.56 0 0 1 1.93 0 1.18 1.18 0 0 1 .85.56 1.75 1.75 0 0 1 .11.72 4.84 4.84 0 0 0 .26 1.31c.06.18.22.4.44.33a.42.42 0 0 0 .22-.43c.01-.77-.1-4.76-.15-5.17Z" style="fill:#455a64"/><path d="M471.86 400c.2.92 1.39 7-.45 8.33-2 1.46-3.37-3.26-3.37-3.26s-4.88-.72-11.76 2.86c.41 1-.51 4.4-2.47 3.93s-3.05-7.45-3.07-7.54c0 6.23.5 11.1 4.25 15.1 4.74 5.06 13.6.11 16-4.11s2.61-7.16 1.34-13.51c-.16-.65-.33-1.25-.47-1.8Z" style="fill:#37474f"/><path d="M467.51 405.53c.15 2.34 2.72 1.23 2.67-2.09s-1.79-11.36-2.45-16.78c-.44-7.8-.75-13-2.26-12.87v.24c0 .08.15 4.44.17 4.94.28 4.77.34 14 1 18.32a65.76 65.76 0 0 1 .87 8.24ZM457.09 407.75a66.05 66.05 0 0 1-1.84-8c-.74-4.26-3.29-12.78-4.55-17.36-.41-.76-1.69-5-1.69-5-1.05.3 0 4.38.49 6.29s1.09 4 1.7 6.71c1.57 5.4 1.72 13.51 2.73 16.62s3.77 2.99 3.16.74Z" style="fill:#37474f"/><path d="M456.14 408.12a.7.7 0 0 0 .2-.08 20.69 20.69 0 0 1 11.58-2.49.62.62 0 0 0 .67-.44.46.46 0 0 0-.43-.56 21.57 21.57 0 0 0-12.38 2.68.49.49 0 0 0-.21.69.55.55 0 0 0 .57.2ZM454.63 403.2a.67.67 0 0 0 .18-.07 25.64 25.64 0 0 1 13-2.78.63.63 0 0 0 .66-.46.46.46 0 0 0-.45-.54 26.68 26.68 0 0 0-13.71 2.94.52.52 0 0 0-.23.7.55.55 0 0 0 .55.21ZM467.18 395.57a.61.61 0 0 0 .46-.39.46.46 0 0 0-.38-.59c-6.87-1.2-13.42 2.67-13.69 2.83a.5.5 0 0 0-.21.7.59.59 0 0 0 .77.12c.06 0 6.42-3.79 12.81-2.66a.65.65 0 0 0 .24-.01ZM466.57 391.07a.59.59 0 0 0 .45-.38.45.45 0 0 0-.37-.59 20 20 0 0 0-14 2.83.48.48 0 0 0-.16.7.59.59 0 0 0 .78.07c.06 0 6-4 13-2.62a.7.7 0 0 0 .3-.01ZM465.86 386a.61.61 0 0 0 .45-.37.45.45 0 0 0-.36-.6c-7.09-1.46-13.78 2.79-14.06 3a.48.48 0 0 0-.17.7.58.58 0 0 0 .77.09c.07 0 6.53-4.15 13.11-2.79a.75.75 0 0 0 .26-.03Z" style="fill:#263238"/><path d="M457.44 214c2.88 37.6 4.14 93.69 4.14 93.69.26 2.85 1.89 6.85 3.21 20.93 1.4 14.86 1.35 36.07 1.35 36.07s-12.56 5.36-20.37 2.59c0 0-8.39-31.82-12.44-49.31-3.85-16.56-6.67-42.46-6.67-42.46l-4.56 25s.57 10.72.3 18.22c-.31 8.72-5 42.12-5 42.12s-11.67 7-19.79.33c0 0-3.95-49-4.21-59.52-.52-20.58-1.11-61.06 1.32-87.61Z" style="fill:#37474f"/><path d="m426.66 275.46-4.11-26.74s-9.45-1.44-14.31-6.11c0 0 3.15 6.19 12.06 8.58l4.08 24.34-2.28 24.88Z" style="fill:#263238"/><path d="M466.35 365.36c-3.51 2.75-13.72 5.1-20.71 2.57l-1.41-5.9c5.28 1.78 16.15.65 22-3ZM417.38 361.44c-2.37 2.4-13.34 4.38-19.82.59l-.47-5.93c4.91 2.74 16.19 2.27 21-.54ZM460.77 272.68s1.09 26.45 1 28.38-14.46 5.73-14.83 4.51c-.62-2-.46-6.59-1.71-28.5 11.94-1.54 15.54-4.39 15.54-4.39Z" style="fill:#455a64"/><path d="M447.49 284.61a4.36 4.36 0 0 1 1.35-.11c.53 0 1.06 0 1.58-.08a26.62 26.62 0 0 0 3.32-.51 25.75 25.75 0 0 0 3.63-1.11c1-.37 1.87-.86 2.84-1.22.09 0 .1.14.05.18a13.58 13.58 0 0 1-3 1.54 21.4 21.4 0 0 1-3 1 25 25 0 0 1-3.31.59c-.55.06-1.11.1-1.67.12a3.6 3.6 0 0 1-1.76-.13c-.11-.07-.12-.24-.03-.27ZM453.58 281.6a.74.74 0 0 0 .25.6 1 1 0 0 0 1.55-1 .89.89 0 0 0-.36-.6 1 1 0 0 0-.72-.18c-.31 0-.42.2-.56.48a1.55 1.55 0 0 0-.16.7Zm.6-.61a.56.56 0 0 1 .4-.1c.45.05.53.76.16 1a.57.57 0 0 1-.72-.14.59.59 0 0 1 .16-.75Z" style="fill:#37474f"/><path d="M388.93 162.24c-4 5.13-12.26 17.47-12.26 17.47s-18.37-12.71-20.13-15.2c-3.52-4.91-4.38-9-9-10.15s-10.42-2.59-10.42-2.59l4.34 21.57c2 2.25 4.42 1.31 9.36 6.16 3.67 3.6 12.63 11.31 20.36 17.21 6.51 5 11.17 2.26 14.19-1.43 7.41-9 13.67-16.28 13.67-16.28l11-33.71c-6.54 1.62-11.46 4.71-21.11 16.95Z" style="fill:#ffa8a7"/><path d="M412.29 144.4c-9.44-.26-15.5 4.28-21.45 13.25-3.6 5.43-14.26 21.25-14.26 21.25l-13.09-9.1s-1.82 6-5.82 9c-3.47 2.6-6.39 1.15-6.39 1.15a118.35 118.35 0 0 0 14.15 13.26c9.9 8 13.25 8.69 17.65 5.35 2.18-1.66 3.62-3.46 7.76-8.24 5-5.75 8.57-10.61 8.57-10.61Z" style="fill:#263238"/><path d="M422.09 144.16s21.78 1.21 27.2 3.68c2.48 1.13 7.92 7.59 6.8 23.12-.46 6.25-3 19-3 23.68-.07 6.63 5.78 28.13 5.78 28.13-20.43 12.56-56.55 8.71-63.87 2 0 0 2.48-27.79 3.26-42.08 0 0-3.92-6.59-3.6-11 .47-6.51 1.83-8.83 7.79-16.11a122.55 122.55 0 0 1 10.19-11.13Z" style="fill:#455a64"/><path d="M441.66 99.3c7 .78 8.73 12.26 7.06 18.74-3.22 12.49-11.65 14-12 19.29l-12.63-7.41-9.82-5.76c-.9-.53-1.8-1.06-2.68-1.63s-1.51-1.21-2.34-1.7c-.64-.38-1.29-.16-2-.35a3.87 3.87 0 0 1-1.67-1.49 8.38 8.38 0 0 1-1.23-2.23 8.59 8.59 0 0 1-.33-4.89 8.65 8.65 0 0 0-1.47 2.36 4.1 4.1 0 0 0-.11 2.74c-2.91-1.94-3.19-9.42 2.4-12.1 1-.47 1.63-2.11 2-3.09a11.6 11.6 0 0 1 1.15-2.41 24.21 24.21 0 0 1 1.64-2 28.4 28.4 0 0 1 3.8-3.47c4-3 10-5.9 15.17-4.76 5.62 1.21 11.4 4.38 13.06 10.16Z" style="fill:#263238"/><path d="m436.45 142.33.7-11.59a5.05 5.05 0 0 0 6.22-1.24c3.46-3.59 3.8-7.5 1.91-10-2.08-2.78-6.7-1.72-8.69 1.66-3 .72-4.24-3.59-1.95-8 0 0-14.59 1-21.35-10.1a3.66 3.66 0 0 0-5.89.92c-.72 1.65-1.65 4.4-1 10 .25 2.06-.75 4.53-.67 7.32.31 11 2.82 14.57 5.84 16.43a17 17 0 0 0 8.23 1.85l-.24 3c-.07 1.61-.45 1.66-1.85 1.74l-2.09.12s-8.45 10.67 2.09 12.12c11.57 1.6 23.16-6.46 25.68-10.17 0 0-.93-.16-3.49-.53s-3.24-1.37-3.45-3.53Z" style="fill:#ffbda7"/><path d="m423.17 126.73-6 1.94a3.1 3.1 0 0 0 3.91 2.13 3.3 3.3 0 0 0 2.09-4.07Z" style="fill:#b16668"/><path d="M422.79 128.12a3.45 3.45 0 0 0-3.45 2.71 3.07 3.07 0 0 0 1.75 0 3.24 3.24 0 0 0 2.17-2.63 3.75 3.75 0 0 0-.47-.08Z" style="fill:#f0997a"/><path d="m408.44 111.73 4-1.77a2.08 2.08 0 0 0-2.8-1.14 2.27 2.27 0 0 0-1.2 2.91ZM412.81 115.09a1.86 1.86 0 0 1-1.66 2 1.75 1.75 0 0 1-1.95-1.59 1.87 1.87 0 0 1 1.66-2 1.75 1.75 0 0 1 1.95 1.59ZM427.41 113.33l-3.86-2.1a2.1 2.1 0 0 1 2.91-.93 2.3 2.3 0 0 1 .95 3.03ZM426.51 115.48a1.87 1.87 0 0 1-1.66 2 1.75 1.75 0 0 1-2-1.59 1.87 1.87 0 0 1 1.66-2 1.74 1.74 0 0 1 2 1.59Z" style="fill:#263238"/><path d="m419.62 111.83-1.29 12.37-6.03-3.19 7.32-9.18zM419.82 139.54c8 .13 13-2.79 15.19-7.6 0 0-.68 4.51-3.92 6.95-3.63 2.73-11.47 2.83-11.47 2.83Z" style="fill:#f0997a"/><path d="M417.73 144.25a61.19 61.19 0 0 0-17.42 36.37c-1.16 12-1.48 61.53-1.48 61.53s-6.93 0-10.14-2.32c1.88-27.48 3.8-54.39 5.14-68.15a28.21 28.21 0 0 1 4.72-12.42 56.72 56.72 0 0 1 13.74-14.86Z" style="fill:#16a34a"/><path d="M390.84 209a82.67 82.67 0 0 0 8.38 1.78l.09-4.24a75.56 75.56 0 0 1-8.15-1.83c-.11 1.45-.16 2.88-.32 4.29ZM399.05 221.4a76.26 76.26 0 0 1-8.94-2.09l-.3 4.3a80.17 80.17 0 0 0 9.19 2c0-1.33 0-2.75.05-4.21Z" style="fill:#fafafa"/><path d="M436.9 144.14c-.64 10.32-3.73 23.42-3.87 34.56-.24 20.19 6 65 6 65s14.53-.21 23.62-6.6c.06-4.85-4.06-21.91-6.1-29s-2.83-16.05-.18-27.29.74-25.21-4.48-33.06Z" style="fill:#16a34a"/><path d="M437.08 228.44c11.91-.93 19.44-4.05 23.11-6-.29-1.31-.57-2.59-.91-3.91-4.78 2.46-14.64 5.11-22.69 5.82.17 1.4.33 2.77.49 4.09ZM456.58 208.08c-.3-1-.57-2.14-.81-3.27a77.25 77.25 0 0 1-20.9 3.71c.14 1.41.28 2.81.43 4.2a81.88 81.88 0 0 0 21.51-3.82c-.08-.29-.16-.56-.23-.82Z" style="fill:#fafafa"/><path d="M449.89 115a23.16 23.16 0 0 1-2.09 6.34c-.44-.65-.94-1.29-1.46-1.92a38.83 38.83 0 0 0-10.64-8.65c-9.32-5.3-21.06-7.77-30.77-5.9a22.28 22.28 0 0 1 2.2-5.29A23.07 23.07 0 0 1 449.89 115Z" style="fill:#16a34a"/><path d="M441.79 91.33c-1.11-.65-6.77-2.85-7.22-3-2.93-1.16-7.76-1.48-13 2.2a23.37 23.37 0 0 0-8.76 11.9l6 2.43 2 .34c1.09-4.46 7.85-13.74 16.26-13.44a8 8 0 0 1 1.18.11 11.16 11.16 0 0 1 3.19.92 32 32 0 0 1 3 2.87 5.18 5.18 0 0 0-2.65-4.33Z" style="fill:#16a34a"/><path d="M441.79 91.33c-1.11-.65-6.77-2.85-7.22-3-2.93-1.16-7.76-1.48-13 2.2a23.37 23.37 0 0 0-8.76 11.9l6 2.43 2 .34c1.09-4.46 7.85-13.74 16.26-13.44a8 8 0 0 1 1.18.11 11.16 11.16 0 0 1 3.19.92 32 32 0 0 1 3 2.87 5.18 5.18 0 0 0-2.65-4.33Z" style="fill:#fff;opacity:.45"/><path d="M420.72 105.19c1.28-5.2 10.31-17 20.63-12.42a31.63 31.63 0 0 1 3.06 2.87 5.21 5.21 0 0 0-2.62-4.31c-2.67-1.55-8.15-2.65-14.27 1.61a23.33 23.33 0 0 0-8.74 11.9Z" style="fill:#16a34a"/><path d="M420.72 105.19c1.28-5.2 10.31-17 20.63-12.42a31.63 31.63 0 0 1 3.06 2.87 5.21 5.21 0 0 0-2.62-4.31c-2.67-1.55-8.15-2.65-14.27 1.61a23.33 23.33 0 0 0-8.74 11.9Z" style="opacity:.30000000000000004"/><path d="M436 109c-.42-.43-2.19-5.22-9.52-9.92C422 96.16 412.3 95.26 408 95c-7.61-.49-9.55 1-9.73 2.1-.05.26-.25 1.48-.31 1.76a1 1 0 0 0 .1.73c1 1.82 6.9 5.29 6.9 5.29 9.71-1.87 21.45.6 30.77 5.9Z" style="fill:#16a34a"/><path d="M436 109c-.42-.43-2.19-5.22-9.52-9.92C422 96.16 412.3 95.26 408 95c-7.61-.49-9.55 1-9.73 2.1-.05.26-.25 1.48-.31 1.76a1 1 0 0 0 .1.73c1 1.82 6.9 5.29 6.9 5.29 9.71-1.87 21.45.6 30.77 5.9Z" style="opacity:.15"/><path d="M435.68 110.77c-9.32-5.3-21.06-7.77-30.77-5.9 0 0-5.9-3.47-6.9-5.29-.53-1 .21-3.4 9.62-2.8 4.35.28 14 1.18 18.54 4.08a25.92 25.92 0 0 1 9.51 9.91Z" style="fill:#16a34a"/><path d="M435.68 110.77c-9.32-5.3-21.06-7.77-30.77-5.9 0 0-5.9-3.47-6.9-5.29-.53-1 .21-3.4 9.62-2.8 4.35.28 14 1.18 18.54 4.08a25.92 25.92 0 0 1 9.51 9.91Z" style="opacity:.30000000000000004"/><path d="m344.22 116.61-5 1.37 9.78 22.45-2.18 8.07-3.5-.63-9.91-22.66-5 1.37c-.22.6-.41 1.21-.58 1.86-3.09 11.46 1.25 27.61 9.69 36.08 4.26 4.28 8.74 5.76 12.53 4.73l5-1.37a7 7 0 0 0 .91-.31l89.13 88.2c.56 9.48 4.5 19.6 10.61 25.72 3.17 3.18 6.45 4.82 9.49 5l5-1.38-9.81-22.44 2.18-8.08 3.49.64 9.95 22.7 5-1.38c.21-.59.4-1.21.58-1.86 3.09-11.45-1.25-27.61-9.69-36.08-4.21-4.22-8.64-5.72-12.4-4.75h-.16l-4.84 1.33a7.91 7.91 0 0 0-1.07.36l-89.13-88.22c-.56-9.47-4.51-19.59-10.62-25.72-3.12-3.14-6.4-4.78-9.45-5Z" style="fill:#16a34a"/><path d="m344.22 116.61-5 1.37 9.78 22.45-2.18 8.07-3.5-.63-9.91-22.66-5 1.37c-.22.6-.41 1.21-.58 1.86-3.09 11.46 1.25 27.61 9.69 36.08 4.26 4.28 8.74 5.76 12.53 4.73l5-1.37a7 7 0 0 0 .91-.31l89.13 88.2c.56 9.48 4.5 19.6 10.61 25.72 3.17 3.18 6.45 4.82 9.49 5l5-1.38-9.81-22.44 2.18-8.08 3.49.64 9.95 22.7 5-1.38c.21-.59.4-1.21.58-1.86 3.09-11.45-1.25-27.61-9.69-36.08-4.21-4.22-8.64-5.72-12.4-4.75h-.16l-4.84 1.33a7.91 7.91 0 0 0-1.07.36l-89.13-88.22c-.56-9.47-4.51-19.59-10.62-25.72-3.12-3.14-6.4-4.78-9.45-5Z" style="fill:#fff;opacity:.2"/><path d="m349 140.43 5.03-1.38-2.77 10.26-4.44-.81 2.18-8.07zM466.07 255.27l5.03-1.38-7.94-1.44-.59 2.18 3.5.64zM445.07 255.77l5.03-1.37-90.39-89.46-5.04 1.37 90.4 89.46z" style="fill:#16a34a;opacity:.4"/><path d="m454.72 236.82-90.39-89.46c-.56-9.47-4.51-19.59-10.62-25.72-3.16-3.17-6.44-4.81-9.49-5l9.78 22.41-2.76 10.26-7.95-1.44-9.91-22.66c-.21.59-.4 1.21-.58 1.86-3.09 11.46 1.25 27.61 9.69 36.08 6.19 6.21 12.85 6.54 17.19 1.79l90.42 89.46c.56 9.47 4.51 19.6 10.61 25.72 3.17 3.18 6.45 4.81 9.5 5l-9.81-22.44 2.76-10.26 7.94 1.44 9.9 22.69c.21-.59.4-1.21.58-1.86 3.09-11.45-1.25-27.61-9.69-36.08-6.17-6.2-12.83-6.54-17.17-1.79Z" style="fill:#16a34a"/><path d="m454.72 236.82-90.39-89.46c-.56-9.47-4.51-19.59-10.62-25.72-3.16-3.17-6.44-4.81-9.49-5l9.78 22.41-2.76 10.26-7.95-1.44-9.91-22.66c-.21.59-.4 1.21-.58 1.86-3.09 11.46 1.25 27.61 9.69 36.08 6.19 6.21 12.85 6.54 17.19 1.79l90.42 89.46c.56 9.47 4.51 19.6 10.61 25.72 3.17 3.18 6.45 4.81 9.5 5l-9.81-22.44 2.76-10.26 7.94 1.44 9.9 22.69c.21-.59.4-1.21.58-1.86 3.09-11.45-1.25-27.61-9.69-36.08-6.17-6.2-12.83-6.54-17.17-1.79Z" style="fill:#fff;opacity:.6000000000000001"/><path d="m371.46 160.4 74.25 73.46a9.17 9.17 0 0 1 2.44 7.86c-.62 2.39-2.72 2.75-4.68.8L369.2 169a9.09 9.09 0 0 1-2.44-7.83c.63-2.37 2.73-2.72 4.7-.77Z" style="fill:#16a34a;opacity:.2"/><path d="m443.14 234.56-74.25-73.46a4.56 4.56 0 0 0-1.58-1.07 3.42 3.42 0 0 0-.55 1.15 9.09 9.09 0 0 0 2.44 7.82l74.27 73.51a4.54 4.54 0 0 0 1.57 1.06 3.34 3.34 0 0 0 .54-1.17 9.13 9.13 0 0 0-2.44-7.84ZM462.57 254.63l.59-2.18 7.94 1.44 9.92 22.66-5.04 1.38-9.91-22.66-3.5-.64z" style="fill:#16a34a;opacity:.2"/><path d="m344.22 116.61 9.81 22.44-2.77 10.26 3.67-10.24-10.71-22.46zM470.2 285.15l-10.92-22.43 3.88-10.27-2.76 10.26 9.8 22.44z" style="fill:#fff;opacity:.2"/><path d="M425.22 205.91c-2.82-2.41-3.58-2.67-6.57-2.78s-4.36-.18-5.52-.12a24.38 24.38 0 0 0-5.94 1.44c-1.38.86.76 2.94 3 2.88s5.18-.36 5.18-.36Z" style="fill:#f0997a"/><path d="M452.24 148.24c9.07 2.41 14.34 5.61 16.22 10.31 3.32 8.33 10.75 34.24 11.91 41s.57 8.54-5 11.62c-4.63 2.57-23.86 8.37-32.74 10.73a7.92 7.92 0 0 1-6.93-1.44l-8.16-6.46 33.67-15.91-7.62-22.84s-7.32-16.32-1.35-27.01Z" style="fill:#ffbda7"/><path d="M451.92 147.73c5.95 1.7 10.92 3.53 13.75 6.42 4 4.07 3.48 4 8.8 20.83s6.87 25.16 7.24 28.53-.08 4.85-5.3 7.73-19.84 6.64-19.84 6.64a33.05 33.05 0 0 0-2.09-9.78c-1.84-4.4-4.48-4.67-4.48-4.67l10.27-5.67S454 180 451.69 174.08s-5.1-16.2.23-26.35Z" style="fill:#263238"/><path d="M438.14 216.67c-1-.18-1.34-4.3-3-4.89s-1.89-.35-2.72-1.95-2-2.22-3.05-2.13-.64-1.81-2.53-2.28a33.71 33.71 0 0 0-7.34-.12c-1.72.17-5.63 2.66-7.31 3.86s-.51 2.33.55 2.88 3.15.06 3.15.06-1.72 1.53-1.32 2.24c.53.93 2.3 1.74 4.77.68-1.61 1.12-1.43 2.2-.09 2.74 1 .42 2.51.22 4.25-.42 2.19-.81 5.12-1.79 6.85-1.08l1.71 1.34Z" style="fill:#ffbda7"/><path d="M438.14 216.67c-.44 0-.68-.49-.9-.8a8.34 8.34 0 0 1-.55-1.07 14.36 14.36 0 0 0-1-2 1.64 1.64 0 0 0-.66-.63l-1.08-.43a2.1 2.1 0 0 1-1.05-.77 4.3 4.3 0 0 1-.47-1.14 7.33 7.33 0 0 0 .79.86 1.93 1.93 0 0 0 .94.42c.37.08.76.18 1.15.3a2.33 2.33 0 0 1 1.09.89 8.16 8.16 0 0 1 .94 2.27l.3 1.13a1.55 1.55 0 0 0 .5.97ZM415.88 212.1c.88-.7 1.76-1.39 2.68-2a18.35 18.35 0 0 1 2.92-1.79 14.45 14.45 0 0 1 3.43-.48 23.71 23.71 0 0 1 3.37 0q-1.65.38-3.3.63l-1.64.28a10.11 10.11 0 0 0-1.54.33c-.93.41-1.91 1.05-2.89 1.56a24.92 24.92 0 0 1-3.03 1.47ZM431.2 211.53c-1.05.16-2.14.18-3.15.25a8.57 8.57 0 0 0-2.88.84c-1.91.83-3.82 1.73-5.84 2.4a28.45 28.45 0 0 1 5.5-3.19 7.14 7.14 0 0 1 3.2-.72 25.44 25.44 0 0 1 3.17.42ZM331.93 160.68c-2.14-2.77-2.35-3.49-2.31-6.31s0-4.11.14-5.21a23.31 23.31 0 0 1 1.63-5.52c.88-1.26 2.73.85 2.57 3s-.58 4.86-.58 4.86Z" style="fill:#f0997a"/><path d="M341.47 173.34c-.13-.94-4-1.46-4.47-3.05s-.24-1.8-1.71-2.65a3.13 3.13 0 0 1-1.86-3c.12-.95-1.67-.68-2-2.49a31.26 31.26 0 0 1 .22-6.92c.24-1.61 2.77-5.16 4-6.69s2.22-.37 2.68.65a5.6 5.6 0 0 1-.08 3s1.51-1.54 2.16-1.13c.85.54 1.54 2.24.42 4.52 1.13-1.47 2.14-1.25 2.59 0a6 6 0 0 1-.6 4c-.86 2-1.77 4.94-1.19 6.61l1.68 2.43Z" style="fill:#ffbda7"/><path d="M338.2 152.17c-.71.8-1.4 1.6-2.05 2.43a17.89 17.89 0 0 0-1.82 2.67 14.52 14.52 0 0 0-.61 3.2 26 26 0 0 0-.13 3.18c.29-1 .54-2.05.76-3.08l.33-1.53a9.48 9.48 0 0 1 .39-1.43c.43-.86 1.07-1.75 1.6-2.65a25 25 0 0 0 1.53-2.79ZM337 166.57c.2-1 .26-2 .38-2.95a8.05 8.05 0 0 1 .92-2.68c.87-1.75 1.8-3.51 2.53-5.38a26.91 26.91 0 0 0-3.26 5 6.77 6.77 0 0 0-.82 3 24.77 24.77 0 0 0 .25 3.01Z" style="fill:#f0997a"/><path d="m361.5 436.38-29-16.74a4.34 4.34 0 0 0-3.89 0l-29 16.74a1.36 1.36 0 0 0-.8 1.12v2.11a1.37 1.37 0 0 0 .8 1.13l29 16.72a4.26 4.26 0 0 0 3.89 0l29-16.72a1.37 1.37 0 0 0 .8-1.13v-2.11a1.36 1.36 0 0 0-.8-1.12Z" style="fill:#16a34a"/><path d="M362.3 437.5v2.11a1.37 1.37 0 0 1-.8 1.13l-29 16.72a3.87 3.87 0 0 1-1.94.47v-38.75a4 4 0 0 1 1.94.46l29 16.74a1.36 1.36 0 0 1 .8 1.12Z" style="opacity:.1"/><path d="M330.58 419.18v38.75a3.91 3.91 0 0 1-1.95-.47l-29-16.72a1.37 1.37 0 0 1-.8-1.13v-2.11a1.36 1.36 0 0 1 .8-1.12l29-16.74a4 4 0 0 1 1.95-.46Z" style="opacity:.30000000000000004"/><path d="m328.63 455.36-29-16.73a1.19 1.19 0 0 1 0-2.25l29-16.73a4.3 4.3 0 0 1 3.89 0l29 16.73a1.19 1.19 0 0 1 0 2.25l-29 16.73a4.32 4.32 0 0 1-3.89 0Z" style="fill:#16a34a"/><path d="m328.63 455.36-29-16.73a1.19 1.19 0 0 1 0-2.25l29-16.73a4.3 4.3 0 0 1 3.89 0l29 16.73a1.19 1.19 0 0 1 0 2.25l-29 16.73a4.32 4.32 0 0 1-3.89 0Z" style="fill:#fff;opacity:.5"/><path d="M330.58 419.18a4 4 0 0 0-1.95.47l-29 16.73a1.19 1.19 0 0 0 0 2.25l29 16.73a4 4 0 0 0 1.95.46Z" style="opacity:.05"/><path d="m348.47 435.39-12.82-38.51v-.06a2.88 2.88 0 0 0-1.39-1.49 8 8 0 0 0-7.3 0 3 3 0 0 0-1.4 1.49l-12.83 38.52c-1.18 3.35.47 7 5 9.57 7.14 4.12 18.7 4.12 25.83 0 4.44-2.55 6.09-6.17 4.91-9.52Z" style="fill:#16a34a"/><path d="m339.33 407.92-1.82-5.47a2.64 2.64 0 0 1-.8 2.75 5 5 0 0 1-1.14.87 11 11 0 0 1-9.95 0 5.26 5.26 0 0 1-1.14-.87 2.66 2.66 0 0 1-.79-2.76l-1.83 5.49a3.17 3.17 0 0 0 .4 2.75 5.85 5.85 0 0 0 2 1.85 10.67 10.67 0 0 0 2.21.91 14.92 14.92 0 0 0 8.17 0 10.76 10.76 0 0 0 2.22-.91 5.81 5.81 0 0 0 2-1.85 3.14 3.14 0 0 0 .47-2.76ZM346.67 430l-1.82-5.48a5 5 0 0 1 .1 2.76 6.3 6.3 0 0 1-1.55 2.77 10.82 10.82 0 0 1-2.54 2c-5.67 3.28-14.87 3.28-20.54 0a10.89 10.89 0 0 1-2.55-2 6.38 6.38 0 0 1-1.54-2.77 4.86 4.86 0 0 1 .1-2.75L314.5 430v.05a5.64 5.64 0 0 0-.2 2.76c.37 2.08 1.94 4.11 4.71 5.71 6.4 3.7 16.78 3.7 23.18 0 2.77-1.6 4.33-3.63 4.71-5.71a5.56 5.56 0 0 0-.23-2.81Z" style="fill:#fafafa"/><path d="m343 419-1.83-5.48a3.7 3.7 0 0 1-.17 2.75 6.42 6.42 0 0 1-2.71 2.76l-.08.06A16.84 16.84 0 0 1 323 419l-.09-.06a6.42 6.42 0 0 1-2.71-2.76 3.75 3.75 0 0 1-.17-2.75l-1.82 5.48a4.31 4.31 0 0 0 0 2.77 6.23 6.23 0 0 0 2 2.74 10.46 10.46 0 0 0 1.46 1 16.21 16.21 0 0 0 4.86 1.74 21.59 21.59 0 0 0 8.17 0 16 16 0 0 0 4.86-1.74 10 10 0 0 0 1.47-1 6.3 6.3 0 0 0 2-2.74A4.38 4.38 0 0 0 343 419Z" style="fill:#fafafa"/><path d="M330.58 394.45a7.47 7.47 0 0 0-3.65.88 3 3 0 0 0-1.4 1.49l-12.83 38.52c-1.18 3.35.47 7 5 9.57a26.4 26.4 0 0 0 12.92 3.09h-.11a10.84 10.84 0 0 1-8.88-12.25l5.34-38.34Z" style="opacity:.1"/><path d="M326.93 399.54c-2-1.16-2-3.05 0-4.21a8 8 0 0 1 7.3 0c2 1.16 2 3.05 0 4.21a8 8 0 0 1-7.3 0Z" style="fill:#16a34a"/><path d="M326.93 399.54c-2-1.16-2-3.05 0-4.21a8 8 0 0 1 7.3 0c2 1.16 2 3.05 0 4.21a8 8 0 0 1-7.3 0Z" style="fill:#fff;opacity:.5"/></svg>